<?xml version="1.0" encoding="UTF-8" standalone="no"?>
<!DOCTYPE svg PUBLIC "-//W3C//DTD SVG 1.1//EN"
 "http://www.w3.org/Graphics/SVG/1.1/DTD/svg11.dtd">
<!-- Generated by graphviz version 2.38.0 (20140413.2041)
 -->
<!-- Title: %3 Pages: 1 -->
<svg width="647pt" height="208pt"
 viewBox="0.00 0.00 647.34 208.00" xmlns="http://www.w3.org/2000/svg" xmlns:xlink="http://www.w3.org/1999/xlink">
<g id="graph0" class="graph" transform="scale(1 1) rotate(0) translate(4 204)">
<title>%3</title>
<!-- Carl -->
<g id="node1" class="node"><title>Carl</title>
<ellipse fill="none" stroke="black" cx="141.071" cy="-127" rx="37.4533" ry="26.7407"/>
<text text-anchor="middle" x="141.071" y="-130.8" font-family="Times New Roman,serif" font-size="14.00">Carl</text>
<text text-anchor="middle" x="141.071" y="-115.8" font-family="Times New Roman,serif" font-size="14.00">Mäsak</text>
</g>
<!-- teacher -->
<g id="node5" class="node"><title>teacher</title>
<ellipse fill="none" stroke="black" cx="366.047" cy="-182" rx="36.2938" ry="18"/>
<text text-anchor="middle" x="366.047" y="-178.3" font-family="Times New Roman,serif" font-size="14.00">teacher</text>
</g>
<!-- Carl&#45;&gt;teacher -->
<g id="edge4" class="edge"><title>Carl&#45;&gt;teacher</title>
<path fill="none" stroke="black" d="M173.736,-140.746C186.265,-145.783 200.909,-151.18 214.547,-155 249.532,-164.799 290.126,-171.837 320.331,-176.267"/>
<polygon fill="black" stroke="black" points="320.162,-179.778 330.556,-177.725 321.15,-172.848 320.162,-179.778"/>
</g>
<!-- programmer -->
<g id="node6" class="node"><title>programmer</title>
<ellipse fill="none" stroke="black" cx="366.047" cy="-72" rx="55.4913" ry="18"/>
<text text-anchor="middle" x="366.047" y="-68.3" font-family="Times New Roman,serif" font-size="14.00">programmer</text>
</g>
<!-- Carl&#45;&gt;programmer -->
<g id="edge5" class="edge"><title>Carl&#45;&gt;programmer</title>
<path fill="none" stroke="black" d="M173.736,-113.254C186.265,-108.217 200.909,-102.82 214.547,-99 243.688,-90.8381 276.72,-84.5912 304.399,-80.1723"/>
<polygon fill="black" stroke="black" points="304.993,-83.6219 314.337,-78.6268 303.918,-76.7051 304.993,-83.6219"/>
</g>
<!-- books -->
<g id="node2" class="node"><title>books</title>
<ellipse fill="none" stroke="black" cx="33.797" cy="-181" rx="33.5952" ry="18"/>
<text text-anchor="middle" x="33.797" y="-177.3" font-family="Times New Roman,serif" font-size="14.00">books</text>
</g>
<!-- books&#45;&gt;Carl -->
<g id="edge1" class="edge"><title>books&#45;&gt;Carl</title>
<path fill="none" stroke="black" d="M58.6852,-168.747C71.2257,-162.314 86.9066,-154.27 101.148,-146.965"/>
<polygon fill="black" stroke="black" points="102.951,-149.974 110.251,-142.296 99.7558,-143.746 102.951,-149.974"/>
</g>
<!-- beer -->
<g id="node3" class="node"><title>beer</title>
<ellipse fill="none" stroke="black" cx="33.797" cy="-127" rx="27" ry="18"/>
<text text-anchor="middle" x="33.797" y="-123.3" font-family="Times New Roman,serif" font-size="14.00">beer</text>
</g>
<!-- beer&#45;&gt;Carl -->
<g id="edge2" class="edge"><title>beer&#45;&gt;Carl</title>
<path fill="none" stroke="black" d="M60.8197,-127C70.6093,-127 82.0657,-127 93.1766,-127"/>
<polygon fill="black" stroke="black" points="93.2257,-130.5 103.226,-127 93.2256,-123.5 93.2257,-130.5"/>
</g>
<!-- music -->
<g id="node4" class="node"><title>music</title>
<ellipse fill="none" stroke="black" cx="33.797" cy="-73" rx="32.4942" ry="18"/>
<text text-anchor="middle" x="33.797" y="-69.3" font-family="Times New Roman,serif" font-size="14.00">music</text>
</g>
<!-- music&#45;&gt;Carl -->
<g id="edge3" class="edge"><title>music&#45;&gt;Carl</title>
<path fill="none" stroke="black" d="M58.1606,-84.9844C70.6827,-91.4075 86.4455,-99.4931 100.791,-106.852"/>
<polygon fill="black" stroke="black" points="99.47,-110.107 109.965,-111.557 102.665,-103.879 99.47,-110.107"/>
</g>
<!-- Edument -->
<g id="node7" class="node"><title>Edument</title>
<ellipse fill="none" stroke="black" cx="596.444" cy="-127" rx="42.7926" ry="18"/>
<text text-anchor="middle" x="596.444" y="-123.3" font-family="Times New Roman,serif" font-size="14.00">Edument</text>
</g>
<!-- teacher&#45;&gt;Edument -->
<g id="edge6" class="edge"><title>teacher&#45;&gt;Edument</title>
<path fill="none" stroke="black" d="M401.477,-177.5C432.217,-173.087 478.311,-165.492 517.547,-155 529.912,-151.694 543.101,-147.299 555.045,-142.973"/>
<polygon fill="black" stroke="black" points="556.578,-146.138 564.739,-139.381 554.146,-139.574 556.578,-146.138"/>
</g>
<!-- subs -->
<g id="node9" class="node"><title>subs</title>
<polygon fill="none" stroke="black" points="411.547,-146 320.547,-146 320.547,-108 411.547,-108 411.547,-146"/>
<text text-anchor="middle" x="366.047" y="-130.8" font-family="Times New Roman,serif" font-size="14.00">math</text>
<text text-anchor="middle" x="366.047" y="-115.8" font-family="Times New Roman,serif" font-size="14.00">programming</text>
</g>
<!-- teacher&#45;&gt;subs -->
<g id="edge9" class="edge"><title>teacher&#45;&gt;subs</title>
<path fill="none" stroke="black" d="M366.047,-163.889C366.047,-158.038 366.047,-152.187 366.047,-146.336"/>
</g>
<!-- programmer&#45;&gt;Edument -->
<g id="edge7" class="edge"><title>programmer&#45;&gt;Edument</title>
<path fill="none" stroke="black" d="M417.334,-78.8635C446.803,-83.4197 484.594,-90.1881 517.547,-99 529.912,-102.306 543.101,-106.701 555.045,-111.027"/>
<polygon fill="black" stroke="black" points="554.146,-114.426 564.739,-114.619 556.578,-107.862 554.146,-114.426"/>
</g>
<!-- JS -->
<g id="node8" class="node"><title>JS</title>
<polygon fill="none" stroke="black" points="517.547,-36 214.547,-36 214.547,-0 517.547,-0 517.547,-36"/>
<text text-anchor="middle" x="366.047" y="-14.3" font-family="Times New Roman,serif" font-size="14.00">Perl 6, Perl 5, Java, Python, JavaScript, TypeScript</text>
</g>
<!-- programmer&#45;&gt;JS -->
<g id="edge8" class="edge"><title>programmer&#45;&gt;JS</title>
<path fill="none" stroke="black" d="M366.047,-53.7902C366.047,-47.907 366.047,-42.0238 366.047,-36.1406"/>
</g>
</g>
</svg>
