<?xml version="1.0" encoding="UTF-8" standalone="no"?>
<!DOCTYPE svg PUBLIC "-//W3C//DTD SVG 1.1//EN"
 "http://www.w3.org/Graphics/SVG/1.1/DTD/svg11.dtd">
<!-- Generated by graphviz version 2.38.0 (20140413.2041)
 -->
<!-- Title: %3 Pages: 1 -->
<svg width="380pt" height="116pt"
 viewBox="0.00 0.00 380.20 116.00" xmlns="http://www.w3.org/2000/svg" xmlns:xlink="http://www.w3.org/1999/xlink">
<g id="graph0" class="graph" transform="scale(1 1) rotate(0) translate(4 112)">
<title>%3</title>
<!-- Chapter1 -->
<g id="node1" class="node"><title>Chapter1</title>
<ellipse fill="none" stroke="black" cx="44.1961" cy="-18" rx="44.393" ry="18"/>
<text text-anchor="middle" x="44.1961" y="-14.3" font-family="Times New Roman,serif" font-size="14.00">Chapter1</text>
</g>
<!-- Chapter2 -->
<g id="node2" class="node"><title>Chapter2</title>
<ellipse fill="none" stroke="black" cx="150.196" cy="-18" rx="44.393" ry="18"/>
<text text-anchor="middle" x="150.196" y="-14.3" font-family="Times New Roman,serif" font-size="14.00">Chapter2</text>
</g>
<!-- Chapter3 -->
<g id="node3" class="node"><title>Chapter3</title>
<ellipse fill="none" stroke="black" cx="256.196" cy="-18" rx="44.393" ry="18"/>
<text text-anchor="middle" x="256.196" y="-14.3" font-family="Times New Roman,serif" font-size="14.00">Chapter3</text>
</g>
<!-- rest -->
<g id="node4" class="node"><title>rest</title>
<ellipse fill="none" stroke="black" cx="345.196" cy="-18" rx="27" ry="18"/>
<text text-anchor="middle" x="345.196" y="-14.3" font-family="Times New Roman,serif" font-size="14.00">...</text>
</g>
<!-- Index -->
<g id="node5" class="node"><title>Index</title>
<ellipse fill="none" stroke="black" cx="203.196" cy="-90" rx="31.3957" ry="18"/>
<text text-anchor="middle" x="203.196" y="-86.3" font-family="Times New Roman,serif" font-size="14.00">Index</text>
</g>
<!-- Index&#45;&gt;Chapter1 -->
<g id="edge1" class="edge"><title>Index&#45;&gt;Chapter1</title>
<path fill="none" stroke="black" d="M179.047,-78.3685C153.414,-67.0832 112.538,-49.0877 82.5022,-35.8643"/>
<polygon fill="black" stroke="black" points="83.7267,-32.5793 73.1641,-31.7532 80.9062,-38.9859 83.7267,-32.5793"/>
</g>
<!-- Index&#45;&gt;Chapter2 -->
<g id="edge2" class="edge"><title>Index&#45;&gt;Chapter2</title>
<path fill="none" stroke="black" d="M191.17,-73.1159C184.555,-64.3803 176.206,-53.3528 168.773,-43.5352"/>
<polygon fill="black" stroke="black" points="171.37,-41.1669 162.543,-35.307 165.789,-45.3923 171.37,-41.1669"/>
</g>
<!-- Index&#45;&gt;Chapter3 -->
<g id="edge3" class="edge"><title>Index&#45;&gt;Chapter3</title>
<path fill="none" stroke="black" d="M215.223,-73.1159C221.837,-64.3803 230.186,-53.3528 237.619,-43.5352"/>
<polygon fill="black" stroke="black" points="240.603,-45.3923 243.849,-35.307 235.023,-41.1669 240.603,-45.3923"/>
</g>
<!-- Index&#45;&gt;rest -->
<g id="edge4" class="edge"><title>Index&#45;&gt;rest</title>
<path fill="none" stroke="black" d="M226.327,-77.5975C250.404,-65.7283 288.23,-47.0819 314.729,-34.0191"/>
<polygon fill="black" stroke="black" points="316.511,-37.043 323.932,-29.4821 313.415,-30.7644 316.511,-37.043"/>
</g>
</g>
</svg>
