<?xml version="1.0" encoding="UTF-8" standalone="no"?>
<!DOCTYPE svg PUBLIC "-//W3C//DTD SVG 1.1//EN"
 "http://www.w3.org/Graphics/SVG/1.1/DTD/svg11.dtd">
<!-- Generated by graphviz version 2.38.0 (20140413.2041)
 -->
<!-- Title: %3 Pages: 1 -->
<svg width="638pt" height="260pt"
 viewBox="0.00 0.00 638.00 260.00" xmlns="http://www.w3.org/2000/svg" xmlns:xlink="http://www.w3.org/1999/xlink">
<g id="graph0" class="graph" transform="scale(1 1) rotate(0) translate(4 256)">
<title>%3</title>
<!-- page1_1 -->
<g id="node1" class="node"><title>page1_1</title>
<ellipse fill="none" stroke="black" cx="342" cy="-162" rx="41.6928" ry="18"/>
<text text-anchor="middle" x="342" y="-158.3" font-family="Times New Roman,serif" font-size="14.00">page1_1</text>
</g>
<!-- page1_2 -->
<g id="node2" class="node"><title>page1_2</title>
<ellipse fill="none" stroke="black" cx="342" cy="-90" rx="41.6928" ry="18"/>
<text text-anchor="middle" x="342" y="-86.3" font-family="Times New Roman,serif" font-size="14.00">page1_2</text>
</g>
<!-- page1_1&#45;&gt;page1_2 -->
<g id="edge8" class="edge"><title>page1_1&#45;&gt;page1_2</title>
<path fill="none" stroke="black" d="M342,-143.697C342,-135.983 342,-126.712 342,-118.112"/>
<polygon fill="black" stroke="black" points="345.5,-118.104 342,-108.104 338.5,-118.104 345.5,-118.104"/>
</g>
<!-- page1_3 -->
<!-- page1_2&#45;&gt;page1_3 -->
<g id="edge12" class="edge"><title>page1_2&#45;&gt;page1_3</title>
<path fill="none" stroke="black" stroke-dasharray="5,2" d="M342,-71.6966C342,-63.9827 342,-54.7125 342,-46.1124"/>
<polygon fill="black" stroke="black" points="345.5,-46.1043 342,-36.1043 338.5,-46.1044 345.5,-46.1043"/>
</g>
<!-- page2_1 -->
<g id="node4" class="node"><title>page2_1</title>
<ellipse fill="none" stroke="black" cx="444" cy="-162" rx="41.6928" ry="18"/>
<text text-anchor="middle" x="444" y="-158.3" font-family="Times New Roman,serif" font-size="14.00">page2_1</text>
</g>
<!-- page2_2 -->
<g id="node5" class="node"><title>page2_2</title>
<ellipse fill="none" stroke="black" cx="444" cy="-90" rx="41.6928" ry="18"/>
<text text-anchor="middle" x="444" y="-86.3" font-family="Times New Roman,serif" font-size="14.00">page2_2</text>
</g>
<!-- page2_1&#45;&gt;page2_2 -->
<g id="edge10" class="edge"><title>page2_1&#45;&gt;page2_2</title>
<path fill="none" stroke="black" d="M444,-143.697C444,-135.983 444,-126.712 444,-118.112"/>
<polygon fill="black" stroke="black" points="447.5,-118.104 444,-108.104 440.5,-118.104 447.5,-118.104"/>
</g>
<!-- page2_3 -->
<!-- page2_2&#45;&gt;page2_3 -->
<g id="edge11" class="edge"><title>page2_2&#45;&gt;page2_3</title>
<path fill="none" stroke="black" stroke-dasharray="5,2" d="M444,-71.6966C444,-63.9827 444,-54.7125 444,-46.1124"/>
<polygon fill="black" stroke="black" points="447.5,-46.1043 444,-36.1043 440.5,-46.1044 447.5,-46.1043"/>
</g>
<!-- Title -->
<g id="node6" class="node"><title>Title</title>
<ellipse fill="none" stroke="black" cx="27" cy="-234" rx="27" ry="18"/>
<text text-anchor="middle" x="27" y="-230.3" font-family="Times New Roman,serif" font-size="14.00">Title</text>
</g>
<!-- Motivation -->
<g id="node7" class="node"><title>Motivation</title>
<ellipse fill="none" stroke="black" stroke-dasharray="5,2" cx="122" cy="-234" rx="50.0912" ry="18"/>
<text text-anchor="middle" x="122" y="-230.3" font-family="Times New Roman,serif" font-size="14.00">Motivation</text>
</g>
<!-- Title&#45;&gt;Motivation -->
<g id="edge1" class="edge"><title>Title&#45;&gt;Motivation</title>
<path fill="none" stroke="black" d="M54.0898,-234C56.5892,-234 59.0886,-234 61.588,-234"/>
<polygon fill="black" stroke="black" points="61.8632,-237.5 71.8632,-234 61.8632,-230.5 61.8632,-237.5"/>
</g>
<!-- Overview -->
<g id="node8" class="node"><title>Overview</title>
<ellipse fill="none" stroke="black" cx="236" cy="-234" rx="45.4919" ry="18"/>
<text text-anchor="middle" x="236" y="-230.3" font-family="Times New Roman,serif" font-size="14.00">Overview</text>
</g>
<!-- Motivation&#45;&gt;Overview -->
<g id="edge2" class="edge"><title>Motivation&#45;&gt;Overview</title>
<path fill="none" stroke="black" d="M172.32,-234C174.932,-234 177.544,-234 180.156,-234"/>
<polygon fill="black" stroke="black" points="180.23,-237.5 190.23,-234 180.23,-230.5 180.23,-237.5"/>
</g>
<!-- Section1 -->
<g id="node9" class="node"><title>Section1</title>
<ellipse fill="none" stroke="black" cx="342" cy="-234" rx="42.4939" ry="18"/>
<text text-anchor="middle" x="342" y="-230.3" font-family="Times New Roman,serif" font-size="14.00">Section1</text>
</g>
<!-- Overview&#45;&gt;Section1 -->
<g id="edge3" class="edge"><title>Overview&#45;&gt;Section1</title>
<path fill="none" stroke="black" d="M281.547,-234C284.164,-234 286.781,-234 289.399,-234"/>
<polygon fill="black" stroke="black" points="289.494,-237.5 299.494,-234 289.494,-230.5 289.494,-237.5"/>
</g>
<!-- Section1&#45;&gt;page1_1 -->
<g id="edge7" class="edge"><title>Section1&#45;&gt;page1_1</title>
<path fill="none" stroke="black" d="M342,-215.697C342,-207.983 342,-198.712 342,-190.112"/>
<polygon fill="black" stroke="black" points="345.5,-190.104 342,-180.104 338.5,-190.104 345.5,-190.104"/>
</g>
<!-- Section2 -->
<g id="node10" class="node"><title>Section2</title>
<ellipse fill="none" stroke="black" cx="444" cy="-234" rx="42.4939" ry="18"/>
<text text-anchor="middle" x="444" y="-230.3" font-family="Times New Roman,serif" font-size="14.00">Section2</text>
</g>
<!-- Section1&#45;&gt;Section2 -->
<g id="edge4" class="edge"><title>Section1&#45;&gt;Section2</title>
<path fill="none" stroke="black" d="M384.633,-234C386.807,-234 388.981,-234 391.155,-234"/>
<polygon fill="black" stroke="black" points="391.33,-237.5 401.33,-234 391.33,-230.5 391.33,-237.5"/>
</g>
<!-- Section2&#45;&gt;page2_1 -->
<g id="edge9" class="edge"><title>Section2&#45;&gt;page2_1</title>
<path fill="none" stroke="black" d="M444,-215.697C444,-207.983 444,-198.712 444,-190.112"/>
<polygon fill="black" stroke="black" points="447.5,-190.104 444,-180.104 440.5,-190.104 447.5,-190.104"/>
</g>
<!-- rest -->
<g id="node11" class="node"><title>rest</title>
<ellipse fill="none" stroke="black" stroke-dasharray="5,2" cx="531" cy="-234" rx="27" ry="18"/>
<text text-anchor="middle" x="531" y="-230.3" font-family="Times New Roman,serif" font-size="14.00">...</text>
</g>
<!-- Section2&#45;&gt;rest -->
<g id="edge5" class="edge"><title>Section2&#45;&gt;rest</title>
<path fill="none" stroke="black" d="M486.48,-234C488.926,-234 491.372,-234 493.817,-234"/>
<polygon fill="black" stroke="black" points="493.871,-237.5 503.871,-234 493.871,-230.5 493.871,-237.5"/>
</g>
<!-- End -->
<g id="node12" class="node"><title>End</title>
<ellipse fill="none" stroke="black" cx="603" cy="-234" rx="27" ry="18"/>
<text text-anchor="middle" x="603" y="-230.3" font-family="Times New Roman,serif" font-size="14.00">End</text>
</g>
<!-- rest&#45;&gt;End -->
<g id="edge6" class="edge"><title>rest&#45;&gt;End</title>
<path fill="none" stroke="black" d="M558,-234C560.615,-234 563.229,-234 565.844,-234"/>
<polygon fill="black" stroke="black" points="565.93,-237.5 575.93,-234 565.93,-230.5 565.93,-237.5"/>
</g>
</g>
</svg>
