<?xml version="1.0" encoding="UTF-8" standalone="no"?>
<!DOCTYPE svg PUBLIC "-//W3C//DTD SVG 1.1//EN"
 "http://www.w3.org/Graphics/SVG/1.1/DTD/svg11.dtd">
<!-- Generated by graphviz version 2.38.0 (20140413.2041)
 -->
<!-- Title: %3 Pages: 1 -->
<svg width="245pt" height="190pt"
 viewBox="0.00 0.00 244.90 190.00" xmlns="http://www.w3.org/2000/svg" xmlns:xlink="http://www.w3.org/1999/xlink">
<g id="graph0" class="graph" transform="scale(1 1) rotate(0) translate(4 186)">
<title>%3</title>
<!-- Web -->
<g id="node1" class="node"><title>Web</title>
<ellipse fill="none" stroke="black" cx="118.397" cy="-164" rx="78.7863" ry="18"/>
<text text-anchor="middle" x="118.397" y="-160.3" font-family="Times New Roman,serif" font-size="14.00">The Web Platform</text>
</g>
<!-- HTML -->
<g id="node2" class="node"><title>HTML</title>
<ellipse fill="none" stroke="black" cx="36.3968" cy="-92" rx="36.2938" ry="18"/>
<text text-anchor="middle" x="36.3968" y="-88.3" font-family="Times New Roman,serif" font-size="14.00">HTML</text>
</g>
<!-- Web&#45;&gt;HTML -->
<g id="edge1" class="edge"><title>Web&#45;&gt;HTML</title>
<path fill="none" stroke="black" d="M98.9639,-146.411C87.8816,-136.95 73.8603,-124.981 61.9014,-114.772"/>
<polygon fill="black" stroke="black" points="63.8911,-111.869 54.013,-108.038 59.3462,-117.193 63.8911,-111.869"/>
</g>
<!-- CSS -->
<g id="node3" class="node"><title>CSS</title>
<ellipse fill="none" stroke="black" cx="118.397" cy="-92" rx="27.8951" ry="18"/>
<text text-anchor="middle" x="118.397" y="-88.3" font-family="Times New Roman,serif" font-size="14.00">CSS</text>
</g>
<!-- Web&#45;&gt;CSS -->
<g id="edge2" class="edge"><title>Web&#45;&gt;CSS</title>
<path fill="none" stroke="black" d="M118.397,-145.697C118.397,-137.983 118.397,-128.712 118.397,-120.112"/>
<polygon fill="black" stroke="black" points="121.897,-120.104 118.397,-110.104 114.897,-120.104 121.897,-120.104"/>
</g>
<!-- JS -->
<g id="node4" class="node"><title>JS</title>
<ellipse fill="none" stroke="black" cx="194.397" cy="-92" rx="27" ry="18"/>
<text text-anchor="middle" x="194.397" y="-88.3" font-family="Times New Roman,serif" font-size="14.00">JS</text>
</g>
<!-- Web&#45;&gt;JS -->
<g id="edge3" class="edge"><title>Web&#45;&gt;JS</title>
<path fill="none" stroke="black" d="M136.408,-146.411C146.964,-136.688 160.399,-124.314 171.678,-113.926"/>
<polygon fill="black" stroke="black" points="174.096,-116.457 179.08,-107.108 169.353,-111.308 174.096,-116.457"/>
</g>
<!-- htmldesc -->
<g id="node5" class="node"><title>htmldesc</title>
<polygon fill="none" stroke="black" points="66.8968,-37 5.89677,-37 5.89677,-1 66.8968,-1 66.8968,-37"/>
<text text-anchor="middle" x="36.3968" y="-15.3" font-family="Times New Roman,serif" font-size="14.00">Content</text>
</g>
<!-- HTML&#45;&gt;htmldesc -->
<g id="edge4" class="edge"><title>HTML&#45;&gt;htmldesc</title>
<path fill="none" stroke="black" d="M36.3968,-73.8129C36.3968,-62.6499 36.3968,-48.1602 36.3968,-37.0288"/>
</g>
<!-- cssdesc -->
<g id="node6" class="node"><title>cssdesc</title>
<polygon fill="none" stroke="black" points="145.897,-38 86.8968,-38 86.8968,-0 145.897,-0 145.897,-38"/>
<text text-anchor="middle" x="116.397" y="-22.8" font-family="Times New Roman,serif" font-size="14.00">Style &amp;</text>
<text text-anchor="middle" x="116.397" y="-7.8" font-family="Times New Roman,serif" font-size="14.00">Layout</text>
</g>
<!-- CSS&#45;&gt;cssdesc -->
<g id="edge5" class="edge"><title>CSS&#45;&gt;cssdesc</title>
<path fill="none" stroke="black" d="M117.913,-73.8129C117.607,-62.9782 117.214,-49.0096 116.904,-38.0196"/>
</g>
<!-- jsdesc -->
<g id="node7" class="node"><title>jsdesc</title>
<polygon fill="none" stroke="black" points="236.897,-37 163.897,-37 163.897,-1 236.897,-1 236.897,-37"/>
<text text-anchor="middle" x="200.397" y="-15.3" font-family="Times New Roman,serif" font-size="14.00">Behaviour</text>
</g>
<!-- JS&#45;&gt;jsdesc -->
<g id="edge6" class="edge"><title>JS&#45;&gt;jsdesc</title>
<path fill="none" stroke="black" d="M195.849,-73.8129C196.793,-62.6499 198.017,-48.1602 198.958,-37.0288"/>
</g>
</g>
</svg>
