<?xml version="1.0" encoding="UTF-8" standalone="no"?>
<!DOCTYPE svg PUBLIC "-//W3C//DTD SVG 1.1//EN"
 "http://www.w3.org/Graphics/SVG/1.1/DTD/svg11.dtd">
<!-- Generated by graphviz version 2.38.0 (20140413.2041)
 -->
<!-- Title: %3 Pages: 1 -->
<svg width="499pt" height="190pt"
 viewBox="0.00 0.00 498.90 190.00" xmlns="http://www.w3.org/2000/svg" xmlns:xlink="http://www.w3.org/1999/xlink">
<g id="graph0" class="graph" transform="scale(1 1) rotate(0) translate(4 186)">
<title>%3</title>
<!-- Web -->
<g id="node1" class="node"><title>Web</title>
<ellipse fill="none" stroke="black" cx="196.397" cy="-164" rx="78.7863" ry="18"/>
<text text-anchor="middle" x="196.397" y="-160.3" font-family="Times New Roman,serif" font-size="14.00">The Web Platform</text>
</g>
<!-- HTML -->
<g id="node2" class="node"><title>HTML</title>
<ellipse fill="none" stroke="black" cx="36.3968" cy="-92" rx="36.2938" ry="18"/>
<text text-anchor="middle" x="36.3968" y="-88.3" font-family="Times New Roman,serif" font-size="14.00">HTML</text>
</g>
<!-- Web&#45;&gt;HTML -->
<g id="edge1" class="edge"><title>Web&#45;&gt;HTML</title>
<path fill="none" stroke="black" d="M161.679,-147.811C135.24,-136.244 98.9608,-120.372 72.2459,-108.684"/>
<polygon fill="black" stroke="black" points="73.4367,-105.385 62.8722,-104.583 70.6309,-111.798 73.4367,-105.385"/>
</g>
<!-- CSS -->
<g id="node3" class="node"><title>CSS</title>
<ellipse fill="none" stroke="black" cx="120.397" cy="-92" rx="27.8951" ry="18"/>
<text text-anchor="middle" x="120.397" y="-88.3" font-family="Times New Roman,serif" font-size="14.00">CSS</text>
</g>
<!-- Web&#45;&gt;CSS -->
<g id="edge2" class="edge"><title>Web&#45;&gt;CSS</title>
<path fill="none" stroke="black" d="M178.386,-146.411C167.829,-136.688 154.395,-124.314 143.116,-113.926"/>
<polygon fill="black" stroke="black" points="145.44,-111.308 135.714,-107.108 140.698,-116.457 145.44,-111.308"/>
</g>
<!-- JS -->
<g id="node4" class="node"><title>JS</title>
<ellipse fill="none" stroke="black" cx="196.397" cy="-92" rx="27" ry="18"/>
<text text-anchor="middle" x="196.397" y="-88.3" font-family="Times New Roman,serif" font-size="14.00">JS</text>
</g>
<!-- Web&#45;&gt;JS -->
<g id="edge3" class="edge"><title>Web&#45;&gt;JS</title>
<path fill="none" stroke="black" d="M196.397,-145.697C196.397,-137.983 196.397,-128.712 196.397,-120.112"/>
<polygon fill="black" stroke="black" points="199.897,-120.104 196.397,-110.104 192.897,-120.104 199.897,-120.104"/>
</g>
<!-- Java -->
<g id="node5" class="node"><title>Java</title>
<ellipse fill="none" stroke="black" stroke-dasharray="5,2" cx="287.397" cy="-92" rx="27" ry="18"/>
<text text-anchor="middle" x="287.397" y="-88.3" font-family="Times New Roman,serif" font-size="14.00">Java</text>
</g>
<!-- Web&#45;&gt;Java -->
<g id="edge4" class="edge"><title>Web&#45;&gt;Java</title>
<path fill="none" stroke="black" stroke-dasharray="5,2" d="M217.963,-146.411C231.194,-136.233 248.201,-123.151 262.071,-112.481"/>
<polygon fill="black" stroke="black" points="264.448,-115.069 270.24,-106.197 260.18,-109.52 264.448,-115.069"/>
</g>
<!-- Flash -->
<g id="node6" class="node"><title>Flash</title>
<ellipse fill="none" stroke="black" stroke-dasharray="5,2" cx="408.397" cy="-92" rx="30.5947" ry="18"/>
<text text-anchor="middle" x="408.397" y="-88.3" font-family="Times New Roman,serif" font-size="14.00">Flash</text>
</g>
<!-- Web&#45;&gt;Flash -->
<g id="edge5" class="edge"><title>Web&#45;&gt;Flash</title>
<path fill="none" stroke="black" stroke-dasharray="5,2" d="M239.298,-148.834C278.448,-135.908 335.653,-117.019 372.455,-104.868"/>
<polygon fill="black" stroke="black" points="373.864,-108.088 382.262,-101.629 371.669,-101.441 373.864,-108.088"/>
</g>
<!-- htmldesc -->
<g id="node7" class="node"><title>htmldesc</title>
<polygon fill="none" stroke="black" points="64.8968,-37 3.89677,-37 3.89677,-1 64.8968,-1 64.8968,-37"/>
<text text-anchor="middle" x="34.3968" y="-15.3" font-family="Times New Roman,serif" font-size="14.00">Content</text>
</g>
<!-- HTML&#45;&gt;htmldesc -->
<g id="edge6" class="edge"><title>HTML&#45;&gt;htmldesc</title>
<path fill="none" stroke="black" d="M35.9126,-73.8129C35.5982,-62.6499 35.19,-48.1602 34.8765,-37.0288"/>
</g>
<!-- cssdesc -->
<g id="node8" class="node"><title>cssdesc</title>
<polygon fill="none" stroke="black" points="141.897,-38 82.8968,-38 82.8968,-0 141.897,-0 141.897,-38"/>
<text text-anchor="middle" x="112.397" y="-22.8" font-family="Times New Roman,serif" font-size="14.00">Style &amp;</text>
<text text-anchor="middle" x="112.397" y="-7.8" font-family="Times New Roman,serif" font-size="14.00">Layout</text>
</g>
<!-- CSS&#45;&gt;cssdesc -->
<g id="edge7" class="edge"><title>CSS&#45;&gt;cssdesc</title>
<path fill="none" stroke="black" d="M118.46,-73.8129C117.239,-62.9782 115.665,-49.0096 114.427,-38.0196"/>
</g>
<!-- jsdesc -->
<g id="node9" class="node"><title>jsdesc</title>
<polygon fill="none" stroke="black" points="232.897,-37 159.897,-37 159.897,-1 232.897,-1 232.897,-37"/>
<text text-anchor="middle" x="196.397" y="-15.3" font-family="Times New Roman,serif" font-size="14.00">Behaviour</text>
</g>
<!-- JS&#45;&gt;jsdesc -->
<g id="edge8" class="edge"><title>JS&#45;&gt;jsdesc</title>
<path fill="none" stroke="black" d="M196.397,-73.8129C196.397,-62.6499 196.397,-48.1602 196.397,-37.0288"/>
</g>
<!-- javadesc -->
<g id="node10" class="node"><title>javadesc</title>
<polygon fill="none" stroke="black" stroke-dasharray="5,2" points="361.897,-38 250.897,-38 250.897,-0 361.897,-0 361.897,-38"/>
<text text-anchor="middle" x="306.397" y="-22.8" font-family="Times New Roman,serif" font-size="14.00">Content, Style &amp;</text>
<text text-anchor="middle" x="306.397" y="-7.8" font-family="Times New Roman,serif" font-size="14.00">Behaviour</text>
</g>
<!-- Java&#45;&gt;javadesc -->
<g id="edge9" class="edge"><title>Java&#45;&gt;javadesc</title>
<path fill="none" stroke="black" stroke-dasharray="5,2" d="M291.9,-74.174C294.797,-63.3481 298.56,-49.2832 301.527,-38.1978"/>
</g>
<!-- flashdesc -->
<g id="node11" class="node"><title>flashdesc</title>
<polygon fill="none" stroke="black" stroke-dasharray="5,2" points="490.897,-38 379.897,-38 379.897,-0 490.897,-0 490.897,-38"/>
<text text-anchor="middle" x="435.397" y="-22.8" font-family="Times New Roman,serif" font-size="14.00">Content, Style &amp;</text>
<text text-anchor="middle" x="435.397" y="-7.8" font-family="Times New Roman,serif" font-size="14.00">Behaviour</text>
</g>
<!-- Flash&#45;&gt;flashdesc -->
<g id="edge10" class="edge"><title>Flash&#45;&gt;flashdesc</title>
<path fill="none" stroke="black" stroke-dasharray="5,2" d="M414.795,-74.174C418.912,-63.3481 424.261,-49.2832 428.476,-38.1978"/>
</g>
</g>
</svg>
