<?xml version="1.0" encoding="UTF-8" standalone="no"?>
<!DOCTYPE svg PUBLIC "-//W3C//DTD SVG 1.1//EN"
 "http://www.w3.org/Graphics/SVG/1.1/DTD/svg11.dtd">
<!-- Generated by graphviz version 2.38.0 (20140413.2041)
 -->
<!-- Title: %3 Pages: 1 -->
<svg width="342pt" height="203pt"
 viewBox="0.00 0.00 342.08 203.12" xmlns="http://www.w3.org/2000/svg" xmlns:xlink="http://www.w3.org/1999/xlink">
<g id="graph0" class="graph" transform="scale(1 1) rotate(0) translate(4 199.123)">
<title>%3</title>
<!-- webapp -->
<g id="node1" class="node"><title>webapp</title>
<ellipse fill="none" stroke="black" cx="42.2463" cy="-123.123" rx="42.4939" ry="18"/>
<text text-anchor="middle" x="42.2463" y="-119.423" font-family="Times New Roman,serif" font-size="14.00">web app</text>
</g>
<!-- compiler -->
<g id="node2" class="node"><title>compiler</title>
<polygon fill="none" stroke="red" points="74.7463,-87.1233 9.74625,-87.1233 9.74625,-51.1233 74.7463,-51.1233 74.7463,-87.1233"/>
<text text-anchor="middle" x="42.2463" y="-65.4233" font-family="Times New Roman,serif" font-size="14.00" fill="red">compiler</text>
</g>
<!-- webapp&#45;&gt;compiler -->
<g id="edge1" class="edge"><title>webapp&#45;&gt;compiler</title>
<path fill="none" stroke="red" d="M42.2463,-104.913C42.2463,-102.431 42.2463,-99.9495 42.2463,-97.4676"/>
<polygon fill="red" stroke="red" points="45.7463,-97.2639 42.2463,-87.2639 38.7463,-97.2639 45.7463,-97.2639"/>
</g>
<!-- browser -->
<g id="node5" class="node"><title>browser</title>
<ellipse fill="none" stroke="black" cx="280.788" cy="-177.123" rx="40.0939" ry="18"/>
<text text-anchor="middle" x="280.788" y="-173.423" font-family="Times New Roman,serif" font-size="14.00">browser</text>
</g>
<!-- webapp&#45;&gt;browser -->
<g id="edge4" class="edge"><title>webapp&#45;&gt;browser</title>
<path fill="none" stroke="black" d="M74.0753,-135.237C88.0742,-140.389 104.947,-146.119 120.493,-150.123 157.381,-159.624 199.959,-166.643 231.81,-171.14"/>
<polygon fill="black" stroke="black" points="231.369,-174.612 241.754,-172.511 232.326,-167.677 231.369,-174.612"/>
</g>
<!-- phonegap -->
<g id="node6" class="node"><title>phonegap</title>
<polygon fill="none" stroke="black" points="191.493,-141.123 120.493,-141.123 120.493,-105.123 191.493,-105.123 191.493,-141.123"/>
<text text-anchor="middle" x="155.993" y="-119.423" font-family="Times New Roman,serif" font-size="14.00">phonegap</text>
</g>
<!-- webapp&#45;&gt;phonegap -->
<g id="edge5" class="edge"><title>webapp&#45;&gt;phonegap</title>
<path fill="none" stroke="black" d="M84.5389,-123.123C92.9371,-123.123 101.808,-123.123 110.317,-123.123"/>
<polygon fill="black" stroke="black" points="110.461,-126.623 120.461,-123.123 110.461,-119.623 110.461,-126.623"/>
</g>
<!-- electron -->
<g id="node7" class="node"><title>electron</title>
<polygon fill="none" stroke="black" points="186.493,-87.1233 125.493,-87.1233 125.493,-51.1233 186.493,-51.1233 186.493,-87.1233"/>
<text text-anchor="middle" x="155.993" y="-65.4233" font-family="Times New Roman,serif" font-size="14.00">electron</text>
</g>
<!-- webapp&#45;&gt;electron -->
<g id="edge7" class="edge"><title>webapp&#45;&gt;electron</title>
<path fill="none" stroke="black" d="M70.8689,-109.775C84.5708,-103.154 101.349,-95.0461 116.306,-87.8181"/>
<polygon fill="black" stroke="black" points="117.859,-90.9549 125.34,-83.4525 114.813,-84.6522 117.859,-90.9549"/>
</g>
<!-- smartphone -->
<g id="node3" class="node"><title>smartphone</title>
<ellipse fill="none" stroke="black" cx="280.788" cy="-123.123" rx="53.0913" ry="18"/>
<text text-anchor="middle" x="280.788" y="-119.423" font-family="Times New Roman,serif" font-size="14.00">smartphone</text>
</g>
<!-- compiler&#45;&gt;smartphone -->
<g id="edge2" class="edge"><title>compiler:e&#45;&gt;smartphone</title>
<path fill="none" stroke="red" d="M76.2463,-69.1233C99.2834,-69.1233 98.3144,-48.3557 120.493,-42.1233 150.871,-33.5863 163.671,-27.2335 191.493,-42.1233 216.924,-55.7338 205.993,-76.8943 227.493,-96.1233 230.663,-98.9586 234.185,-101.586 237.86,-103.997"/>
<polygon fill="red" stroke="red" points="236.241,-107.107 246.621,-109.23 239.83,-101.098 236.241,-107.107"/>
</g>
<!-- desktop -->
<g id="node4" class="node"><title>desktop</title>
<ellipse fill="none" stroke="black" cx="280.788" cy="-69.1233" rx="40.0939" ry="18"/>
<text text-anchor="middle" x="280.788" y="-65.4233" font-family="Times New Roman,serif" font-size="14.00">desktop</text>
</g>
<!-- compiler&#45;&gt;desktop -->
<g id="edge3" class="edge"><title>compiler:e&#45;&gt;desktop</title>
<path fill="none" stroke="red" d="M76.2463,-69.1233C109.38,-69.1233 90.9172,-24.0607 120.493,-9.12329 148.659,5.10282 161.332,0.154687 191.493,-9.12329 215.393,-16.4754 238.626,-32.744 255.257,-46.4883"/>
<polygon fill="red" stroke="red" points="252.986,-49.1519 262.864,-52.9825 257.531,-43.8279 252.986,-49.1519"/>
</g>
<!-- phonegap&#45;&gt;smartphone -->
<g id="edge6" class="edge"><title>phonegap&#45;&gt;smartphone</title>
<path fill="none" stroke="black" d="M191.525,-123.123C199.478,-123.123 208.182,-123.123 216.924,-123.123"/>
<polygon fill="black" stroke="black" points="217.163,-126.623 227.163,-123.123 217.163,-119.623 217.163,-126.623"/>
</g>
<!-- electron&#45;&gt;desktop -->
<g id="edge8" class="edge"><title>electron&#45;&gt;desktop</title>
<path fill="none" stroke="black" d="M186.718,-69.1233C199.626,-69.1233 215.107,-69.1233 229.703,-69.1233"/>
<polygon fill="black" stroke="black" points="230.126,-72.6234 240.126,-69.1233 230.126,-65.6234 230.126,-72.6234"/>
</g>
</g>
</svg>
