<?xml version="1.0" encoding="UTF-8" standalone="no"?>
<!DOCTYPE svg PUBLIC "-//W3C//DTD SVG 1.1//EN"
 "http://www.w3.org/Graphics/SVG/1.1/DTD/svg11.dtd">
<!-- Generated by graphviz version 2.38.0 (20140413.2041)
 -->
<!-- Title: %3 Pages: 1 -->
<svg width="371pt" height="190pt"
 viewBox="0.00 0.00 370.90 190.00" xmlns="http://www.w3.org/2000/svg" xmlns:xlink="http://www.w3.org/1999/xlink">
<g id="graph0" class="graph" transform="scale(1 1) rotate(0) translate(4 186)">
<title>%3</title>
<!-- Web -->
<g id="node1" class="node"><title>Web</title>
<ellipse fill="none" stroke="black" cx="158.397" cy="-164" rx="78.7863" ry="18"/>
<text text-anchor="middle" x="158.397" y="-160.3" font-family="Times New Roman,serif" font-size="14.00">The Web Platform</text>
</g>
<!-- HTML -->
<g id="node2" class="node"><title>HTML</title>
<ellipse fill="none" stroke="black" cx="36.3968" cy="-92" rx="36.2938" ry="18"/>
<text text-anchor="middle" x="36.3968" y="-88.3" font-family="Times New Roman,serif" font-size="14.00">HTML</text>
</g>
<!-- Web&#45;&gt;HTML -->
<g id="edge1" class="edge"><title>Web&#45;&gt;HTML</title>
<path fill="none" stroke="black" d="M130.713,-147.116C112.142,-136.46 87.6269,-122.394 68.2454,-111.274"/>
<polygon fill="black" stroke="black" points="69.8828,-108.178 59.4673,-106.237 66.3991,-114.25 69.8828,-108.178"/>
</g>
<!-- CSS -->
<g id="node3" class="node"><title>CSS</title>
<ellipse fill="none" stroke="black" cx="120.397" cy="-92" rx="27.8951" ry="18"/>
<text text-anchor="middle" x="120.397" y="-88.3" font-family="Times New Roman,serif" font-size="14.00">CSS</text>
</g>
<!-- Web&#45;&gt;CSS -->
<g id="edge2" class="edge"><title>Web&#45;&gt;CSS</title>
<path fill="none" stroke="black" d="M149.198,-146.055C144.651,-137.679 139.073,-127.404 134.041,-118.134"/>
<polygon fill="black" stroke="black" points="137.096,-116.426 129.249,-109.307 130.944,-119.765 137.096,-116.426"/>
</g>
<!-- JS -->
<g id="node4" class="node"><title>JS</title>
<ellipse fill="none" stroke="black" cx="196.397" cy="-92" rx="27" ry="18"/>
<text text-anchor="middle" x="196.397" y="-88.3" font-family="Times New Roman,serif" font-size="14.00">JS</text>
</g>
<!-- Web&#45;&gt;JS -->
<g id="edge3" class="edge"><title>Web&#45;&gt;JS</title>
<path fill="none" stroke="black" d="M167.596,-146.055C172.142,-137.679 177.72,-127.404 182.753,-118.134"/>
<polygon fill="black" stroke="black" points="185.849,-119.765 187.544,-109.307 179.697,-116.426 185.849,-119.765"/>
</g>
<!-- Java -->
<g id="node5" class="node"><title>Java</title>
<ellipse fill="none" stroke="black" stroke-dasharray="5,2" cx="290.397" cy="-92" rx="27" ry="18"/>
<text text-anchor="middle" x="290.397" y="-88.3" font-family="Times New Roman,serif" font-size="14.00">Java</text>
</g>
<!-- Web&#45;&gt;Java -->
<g id="edge4" class="edge"><title>Web&#45;&gt;Java</title>
<path fill="none" stroke="black" stroke-dasharray="5,2" d="M188.02,-147.291C209.738,-135.774 239.098,-120.204 260.808,-108.691"/>
<polygon fill="black" stroke="black" points="262.699,-111.65 269.894,-103.873 259.42,-105.466 262.699,-111.65"/>
</g>
<!-- htmldesc -->
<g id="node6" class="node"><title>htmldesc</title>
<polygon fill="none" stroke="black" points="65.8968,-37 4.89677,-37 4.89677,-1 65.8968,-1 65.8968,-37"/>
<text text-anchor="middle" x="35.3968" y="-15.3" font-family="Times New Roman,serif" font-size="14.00">Content</text>
</g>
<!-- HTML&#45;&gt;htmldesc -->
<g id="edge5" class="edge"><title>HTML&#45;&gt;htmldesc</title>
<path fill="none" stroke="black" d="M36.1547,-73.8129C35.9975,-62.6499 35.7934,-48.1602 35.6366,-37.0288"/>
</g>
<!-- cssdesc -->
<g id="node7" class="node"><title>cssdesc</title>
<polygon fill="none" stroke="black" points="142.897,-38 83.8968,-38 83.8968,-0 142.897,-0 142.897,-38"/>
<text text-anchor="middle" x="113.397" y="-22.8" font-family="Times New Roman,serif" font-size="14.00">Style &amp;</text>
<text text-anchor="middle" x="113.397" y="-7.8" font-family="Times New Roman,serif" font-size="14.00">Layout</text>
</g>
<!-- CSS&#45;&gt;cssdesc -->
<g id="edge6" class="edge"><title>CSS&#45;&gt;cssdesc</title>
<path fill="none" stroke="black" d="M118.702,-73.8129C117.634,-62.9782 116.257,-49.0096 115.173,-38.0196"/>
</g>
<!-- jsdesc -->
<g id="node8" class="node"><title>jsdesc</title>
<polygon fill="none" stroke="black" points="233.897,-37 160.897,-37 160.897,-1 233.897,-1 233.897,-37"/>
<text text-anchor="middle" x="197.397" y="-15.3" font-family="Times New Roman,serif" font-size="14.00">Behaviour</text>
</g>
<!-- JS&#45;&gt;jsdesc -->
<g id="edge7" class="edge"><title>JS&#45;&gt;jsdesc</title>
<path fill="none" stroke="black" d="M196.639,-73.8129C196.796,-62.6499 197,-48.1602 197.157,-37.0288"/>
</g>
<!-- javadesc -->
<g id="node9" class="node"><title>javadesc</title>
<polygon fill="none" stroke="black" stroke-dasharray="5,2" points="362.897,-38 251.897,-38 251.897,-0 362.897,-0 362.897,-38"/>
<text text-anchor="middle" x="307.397" y="-22.8" font-family="Times New Roman,serif" font-size="14.00">Content, Style &amp;</text>
<text text-anchor="middle" x="307.397" y="-7.8" font-family="Times New Roman,serif" font-size="14.00">Behaviour</text>
</g>
<!-- Java&#45;&gt;javadesc -->
<g id="edge8" class="edge"><title>Java&#45;&gt;javadesc</title>
<path fill="none" stroke="black" stroke-dasharray="5,2" d="M294.426,-74.174C297.018,-63.3481 300.385,-49.2832 303.04,-38.1978"/>
</g>
</g>
</svg>
