<?xml version="1.0" encoding="UTF-8" standalone="no"?>
<!DOCTYPE svg PUBLIC "-//W3C//DTD SVG 1.1//EN"
 "http://www.w3.org/Graphics/SVG/1.1/DTD/svg11.dtd">
<!-- Generated by graphviz version 2.38.0 (20140413.2041)
 -->
<!-- Title: %3 Pages: 1 -->
<svg width="250pt" height="116pt"
 viewBox="0.00 0.00 250.39 116.00" xmlns="http://www.w3.org/2000/svg" xmlns:xlink="http://www.w3.org/1999/xlink">
<g id="graph0" class="graph" transform="scale(1 1) rotate(0) translate(4 112)">
<title>%3</title>
<!-- frontend -->
<g id="node1" class="node"><title>frontend</title>
<ellipse fill="none" stroke="black" cx="41.5963" cy="-90" rx="41.6928" ry="18"/>
<text text-anchor="middle" x="41.5963" y="-86.3" font-family="Times New Roman,serif" font-size="14.00">frontend</text>
</g>
<!-- backend -->
<g id="node2" class="node"><title>backend</title>
<ellipse fill="none" stroke="black" cx="200.789" cy="-90" rx="41.6928" ry="18"/>
<text text-anchor="middle" x="200.789" y="-86.3" font-family="Times New Roman,serif" font-size="14.00">backend</text>
</g>
<!-- frontend&#45;&gt;backend -->
<g id="edge1" class="edge"><title>frontend&#45;&gt;backend</title>
<path fill="none" stroke="black" d="M83.4865,-90C103.499,-90 127.787,-90 148.98,-90"/>
<polygon fill="black" stroke="black" points="149.104,-93.5001 159.103,-90 149.103,-86.5001 149.104,-93.5001"/>
<text text-anchor="middle" x="121.193" y="-93.8" font-family="Times New Roman,serif" font-size="14.00">queries</text>
</g>
<!-- frontstuff -->
<g id="node3" class="node"><title>frontstuff</title>
<polygon fill="none" stroke="black" points="74.0963,-36 9.09631,-36 9.09631,-0 74.0963,-0 74.0963,-36"/>
<text text-anchor="middle" x="41.5963" y="-14.3" font-family="Times New Roman,serif" font-size="14.00">UI, logic</text>
</g>
<!-- frontend&#45;&gt;frontstuff -->
<g id="edge2" class="edge"><title>frontend&#45;&gt;frontstuff</title>
<path fill="none" stroke="black" d="M41.5963,-71.9539C41.5963,-60.063 41.5963,-48.1721 41.5963,-36.2813"/>
</g>
<!-- backstuff -->
<g id="node4" class="node"><title>backstuff</title>
<polygon fill="none" stroke="black" points="233.289,-36 168.289,-36 168.289,-0 233.289,-0 233.289,-36"/>
<text text-anchor="middle" x="200.789" y="-14.3" font-family="Times New Roman,serif" font-size="14.00">database</text>
</g>
<!-- backend&#45;&gt;backstuff -->
<g id="edge3" class="edge"><title>backend&#45;&gt;backstuff</title>
<path fill="none" stroke="black" d="M200.789,-71.9539C200.789,-60.063 200.789,-48.1721 200.789,-36.2813"/>
</g>
</g>
</svg>
