<?xml version="1.0" encoding="UTF-8" standalone="no"?>
<!DOCTYPE svg PUBLIC "-//W3C//DTD SVG 1.1//EN"
 "http://www.w3.org/Graphics/SVG/1.1/DTD/svg11.dtd">
<!-- Generated by graphviz version 2.38.0 (20140413.2041)
 -->
<!-- Title: %3 Pages: 1 -->
<svg width="278pt" height="118pt"
 viewBox="0.00 0.00 278.19 118.00" xmlns="http://www.w3.org/2000/svg" xmlns:xlink="http://www.w3.org/1999/xlink">
<g id="graph0" class="graph" transform="scale(1 1) rotate(0) translate(4 114)">
<title>%3</title>
<!-- frontend -->
<g id="node1" class="node"><title>frontend</title>
<ellipse fill="none" stroke="black" cx="41.5963" cy="-92" rx="41.6928" ry="18"/>
<text text-anchor="middle" x="41.5963" y="-88.3" font-family="Times New Roman,serif" font-size="14.00">frontend</text>
</g>
<!-- backend -->
<g id="node2" class="node"><title>backend</title>
<ellipse fill="none" stroke="black" cx="220.693" cy="-92" rx="41.6928" ry="18"/>
<text text-anchor="middle" x="220.693" y="-88.3" font-family="Times New Roman,serif" font-size="14.00">backend</text>
</g>
<!-- frontend&#45;&gt;backend -->
<g id="edge1" class="edge"><title>frontend&#45;&gt;backend</title>
<path fill="none" stroke="black" d="M93.3197,-92C120.476,-92 153.478,-92 178.946,-92"/>
<polygon fill="black" stroke="black" points="93.2258,-88.5001 83.2258,-92 93.2257,-95.5001 93.2258,-88.5001"/>
<text text-anchor="middle" x="127.193" y="-95.8" font-family="Times New Roman,serif" font-size="14.00">generates</text>
</g>
<!-- frontstuff -->
<g id="node3" class="node"><title>frontstuff</title>
<polygon fill="none" stroke="black" points="68.5963,-38 14.5963,-38 14.5963,-2 68.5963,-2 68.5963,-38"/>
<text text-anchor="middle" x="41.5963" y="-16.3" font-family="Times New Roman,serif" font-size="14.00">UI</text>
</g>
<!-- frontend&#45;&gt;frontstuff -->
<g id="edge2" class="edge"><title>frontend&#45;&gt;frontstuff</title>
<path fill="none" stroke="black" d="M41.5963,-73.9539C41.5963,-62.063 41.5963,-50.1721 41.5963,-38.2813"/>
</g>
<!-- backstuff -->
<g id="node4" class="node"><title>backstuff</title>
<polygon fill="none" stroke="black" points="270.193,-38 171.193,-38 171.193,-0 270.193,-0 270.193,-38"/>
<text text-anchor="middle" x="220.693" y="-22.8" font-family="Times New Roman,serif" font-size="14.00">business logic,</text>
<text text-anchor="middle" x="220.693" y="-7.8" font-family="Times New Roman,serif" font-size="14.00">database</text>
</g>
<!-- backend&#45;&gt;backstuff -->
<g id="edge3" class="edge"><title>backend&#45;&gt;backstuff</title>
<path fill="none" stroke="black" d="M220.693,-73.8948C220.693,-61.965 220.693,-50.0352 220.693,-38.1055"/>
</g>
</g>
</svg>
