<?xml version="1.0" encoding="UTF-8" standalone="no"?>
<!DOCTYPE svg PUBLIC "-//W3C//DTD SVG 1.1//EN"
 "http://www.w3.org/Graphics/SVG/1.1/DTD/svg11.dtd">
<!-- Generated by graphviz version 2.38.0 (20140413.2041)
 -->
<!-- Title: %3 Pages: 1 -->
<svg width="342pt" height="152pt"
 viewBox="0.00 0.00 342.08 152.00" xmlns="http://www.w3.org/2000/svg" xmlns:xlink="http://www.w3.org/1999/xlink">
<g id="graph0" class="graph" transform="scale(1 1) rotate(0) translate(4 148)">
<title>%3</title>
<!-- webapp -->
<g id="node1" class="node"><title>webapp</title>
<ellipse fill="none" stroke="black" cx="42.2463" cy="-72" rx="42.4939" ry="18"/>
<text text-anchor="middle" x="42.2463" y="-68.3" font-family="Times New Roman,serif" font-size="14.00">web app</text>
</g>
<!-- browser -->
<g id="node2" class="node"><title>browser</title>
<ellipse fill="none" stroke="black" cx="280.788" cy="-126" rx="40.0939" ry="18"/>
<text text-anchor="middle" x="280.788" y="-122.3" font-family="Times New Roman,serif" font-size="14.00">browser</text>
</g>
<!-- webapp&#45;&gt;browser -->
<g id="edge1" class="edge"><title>webapp&#45;&gt;browser</title>
<path fill="none" stroke="black" d="M74.0753,-84.1141C88.0742,-89.2661 104.947,-94.996 120.493,-99 157.381,-108.501 199.959,-115.52 231.81,-120.016"/>
<polygon fill="black" stroke="black" points="231.369,-123.489 241.754,-121.388 232.326,-116.554 231.369,-123.489"/>
</g>
<!-- phonegap -->
<g id="node3" class="node"><title>phonegap</title>
<polygon fill="none" stroke="black" points="191.493,-90 120.493,-90 120.493,-54 191.493,-54 191.493,-90"/>
<text text-anchor="middle" x="155.993" y="-68.3" font-family="Times New Roman,serif" font-size="14.00">phonegap</text>
</g>
<!-- webapp&#45;&gt;phonegap -->
<g id="edge2" class="edge"><title>webapp&#45;&gt;phonegap</title>
<path fill="none" stroke="black" d="M84.5389,-72C92.9371,-72 101.808,-72 110.317,-72"/>
<polygon fill="black" stroke="black" points="110.461,-75.5001 120.461,-72 110.461,-68.5001 110.461,-75.5001"/>
</g>
<!-- electron -->
<g id="node5" class="node"><title>electron</title>
<polygon fill="none" stroke="black" points="186.493,-36 125.493,-36 125.493,-0 186.493,-0 186.493,-36"/>
<text text-anchor="middle" x="155.993" y="-14.3" font-family="Times New Roman,serif" font-size="14.00">electron</text>
</g>
<!-- webapp&#45;&gt;electron -->
<g id="edge4" class="edge"><title>webapp&#45;&gt;electron</title>
<path fill="none" stroke="black" d="M70.8689,-58.6517C84.5708,-52.0304 101.349,-43.9228 116.306,-36.6948"/>
<polygon fill="black" stroke="black" points="117.859,-39.8316 125.34,-32.3292 114.813,-33.5289 117.859,-39.8316"/>
</g>
<!-- smartphone -->
<g id="node4" class="node"><title>smartphone</title>
<ellipse fill="none" stroke="black" cx="280.788" cy="-72" rx="53.0913" ry="18"/>
<text text-anchor="middle" x="280.788" y="-68.3" font-family="Times New Roman,serif" font-size="14.00">smartphone</text>
</g>
<!-- phonegap&#45;&gt;smartphone -->
<g id="edge3" class="edge"><title>phonegap&#45;&gt;smartphone</title>
<path fill="none" stroke="black" d="M191.525,-72C199.478,-72 208.182,-72 216.924,-72"/>
<polygon fill="black" stroke="black" points="217.163,-75.5001 227.163,-72 217.163,-68.5001 217.163,-75.5001"/>
</g>
<!-- desktop -->
<g id="node6" class="node"><title>desktop</title>
<ellipse fill="none" stroke="black" cx="280.788" cy="-18" rx="40.0939" ry="18"/>
<text text-anchor="middle" x="280.788" y="-14.3" font-family="Times New Roman,serif" font-size="14.00">desktop</text>
</g>
<!-- electron&#45;&gt;desktop -->
<g id="edge5" class="edge"><title>electron&#45;&gt;desktop</title>
<path fill="none" stroke="black" d="M186.718,-18C199.626,-18 215.107,-18 229.703,-18"/>
<polygon fill="black" stroke="black" points="230.126,-21.5001 240.126,-18 230.126,-14.5001 230.126,-21.5001"/>
</g>
</g>
</svg>
