<?xml version="1.0" encoding="UTF-8" standalone="no"?>
<!DOCTYPE svg PUBLIC "-//W3C//DTD SVG 1.1//EN"
 "http://www.w3.org/Graphics/SVG/1.1/DTD/svg11.dtd">
<!-- Generated by graphviz version 2.38.0 (20140413.2041)
 -->
<!-- Title: %3 Pages: 1 -->
<svg width="476pt" height="44pt"
 viewBox="0.00 0.00 476.38 44.00" xmlns="http://www.w3.org/2000/svg" xmlns:xlink="http://www.w3.org/1999/xlink">
<g id="graph0" class="graph" transform="scale(1 1) rotate(0) translate(4 40)">
<title>%3</title>
<!-- HTML -->
<g id="node1" class="node"><title>HTML</title>
<ellipse fill="none" stroke="black" cx="36.3968" cy="-18" rx="36.2938" ry="18"/>
<text text-anchor="middle" x="36.3968" y="-14.3" font-family="Times New Roman,serif" font-size="14.00">HTML</text>
</g>
<!-- CSS -->
<g id="node2" class="node"><title>CSS</title>
<ellipse fill="none" stroke="black" cx="136.741" cy="-18" rx="27.8951" ry="18"/>
<text text-anchor="middle" x="136.741" y="-14.3" font-family="Times New Roman,serif" font-size="14.00">CSS</text>
</g>
<!-- HTML&#45;&gt;CSS -->
<g id="edge1" class="edge"><title>HTML&#45;&gt;CSS</title>
<path fill="none" stroke="black" d="M72.9013,-18C81.1799,-18 90.0199,-18 98.3764,-18"/>
<polygon fill="black" stroke="black" points="98.624,-21.5001 108.624,-18 98.624,-14.5001 98.624,-21.5001"/>
</g>
<!-- JS -->
<g id="node3" class="node"><title>JS</title>
<ellipse fill="none" stroke="black" cx="227.689" cy="-18" rx="27" ry="18"/>
<text text-anchor="middle" x="227.689" y="-14.3" font-family="Times New Roman,serif" font-size="14.00">JS</text>
</g>
<!-- CSS&#45;&gt;JS -->
<g id="edge2" class="edge"><title>CSS&#45;&gt;JS</title>
<path fill="none" stroke="black" d="M164.912,-18C172.975,-18 181.937,-18 190.478,-18"/>
<polygon fill="black" stroke="black" points="190.599,-21.5001 200.599,-18 190.599,-14.5001 190.599,-21.5001"/>
</g>
<!-- DOM -->
<g id="node4" class="node"><title>DOM</title>
<ellipse fill="none" stroke="black" cx="322.536" cy="-18" rx="31.6951" ry="18"/>
<text text-anchor="middle" x="322.536" y="-14.3" font-family="Times New Roman,serif" font-size="14.00">DOM</text>
</g>
<!-- JS&#45;&gt;DOM -->
<g id="edge3" class="edge"><title>JS&#45;&gt;DOM</title>
<path fill="none" stroke="black" d="M255.047,-18C262.898,-18 271.698,-18 280.262,-18"/>
<polygon fill="black" stroke="black" points="280.51,-21.5001 290.51,-18 280.51,-14.5001 280.51,-21.5001"/>
</g>
<!-- Angular -->
<g id="node5" class="node"><title>Angular</title>
<ellipse fill="none" stroke="black" cx="429.379" cy="-18" rx="38.9931" ry="18"/>
<text text-anchor="middle" x="429.379" y="-14.3" font-family="Times New Roman,serif" font-size="14.00">Angular</text>
</g>
<!-- DOM&#45;&gt;Angular -->
<g id="edge4" class="edge"><title>DOM&#45;&gt;Angular</title>
<path fill="none" stroke="black" d="M354.425,-18C362.5,-18 371.401,-18 380.144,-18"/>
<polygon fill="black" stroke="black" points="380.278,-21.5001 390.278,-18 380.278,-14.5001 380.278,-21.5001"/>
</g>
</g>
</svg>
