<?xml version="1.0" encoding="UTF-8" standalone="no"?>
<!DOCTYPE svg PUBLIC "-//W3C//DTD SVG 1.1//EN"
 "http://www.w3.org/Graphics/SVG/1.1/DTD/svg11.dtd">
<!-- Generated by graphviz version 2.38.0 (20140413.2041)
 -->
<!-- Title: %3 Pages: 1 -->
<svg width="293pt" height="305pt"
 viewBox="0.00 0.00 293.00 305.00" xmlns="http://www.w3.org/2000/svg" xmlns:xlink="http://www.w3.org/1999/xlink">
<g id="graph0" class="graph" transform="scale(1 1) rotate(0) translate(4 301)">
<title>%3</title>
<!-- A -->
<g id="node1" class="node"><title>A</title>
<ellipse fill="none" stroke="black" cx="131" cy="-279" rx="27" ry="18"/>
<text text-anchor="middle" x="131" y="-275.3" font-family="Times New Roman,serif" font-size="14.00">A</text>
</g>
<!-- B -->
<g id="node2" class="node"><title>B</title>
<ellipse fill="none" stroke="black" cx="75" cy="-192" rx="27" ry="18"/>
<text text-anchor="middle" x="75" y="-188.3" font-family="Times New Roman,serif" font-size="14.00">B</text>
</g>
<!-- A&#45;&gt;B -->
<g id="edge1" class="edge"><title>A&#45;&gt;B</title>
<path fill="none" stroke="black" d="M112.653,-265.437C105.036,-259.419 96.671,-251.64 91,-243 86.4794,-236.113 83.1564,-227.855 80.7489,-220.054"/>
<polygon fill="black" stroke="black" points="84.0773,-218.955 78.0876,-210.215 77.3201,-220.782 84.0773,-218.955"/>
<text text-anchor="middle" x="107.5" y="-231.8" font-family="Times New Roman,serif" font-size="14.00">needs</text>
</g>
<!-- C -->
<g id="node3" class="node"><title>C</title>
<ellipse fill="none" stroke="black" cx="179" cy="-192" rx="27" ry="18"/>
<text text-anchor="middle" x="179" y="-188.3" font-family="Times New Roman,serif" font-size="14.00">C</text>
</g>
<!-- A&#45;&gt;C -->
<g id="edge2" class="edge"><title>A&#45;&gt;C</title>
<path fill="none" stroke="black" d="M127.734,-260.879C126.657,-250.772 126.834,-238.036 132,-228 135.863,-220.495 142.159,-214.178 148.905,-209.068"/>
<polygon fill="black" stroke="black" points="151.209,-211.736 157.541,-203.241 147.294,-205.933 151.209,-211.736"/>
<text text-anchor="middle" x="144.5" y="-231.8" font-family="Times New Roman,serif" font-size="14.00">uses</text>
</g>
<!-- D -->
<g id="node4" class="node"><title>D</title>
<ellipse fill="none" stroke="black" cx="27" cy="-105" rx="27" ry="18"/>
<text text-anchor="middle" x="27" y="-101.3" font-family="Times New Roman,serif" font-size="14.00">D</text>
</g>
<!-- B&#45;&gt;D -->
<g id="edge4" class="edge"><title>B&#45;&gt;D</title>
<path fill="none" stroke="black" d="M51.8815,-182.627C40.0805,-177.037 26.8079,-168.402 20,-156 16.1288,-148.948 15.9331,-140.526 17.2751,-132.622"/>
<polygon fill="black" stroke="black" points="20.7283,-133.239 19.7452,-122.69 13.9352,-131.549 20.7283,-133.239"/>
<text text-anchor="middle" x="52" y="-144.8" font-family="Times New Roman,serif" font-size="14.00">implements</text>
</g>
<!-- E -->
<g id="node5" class="node"><title>E</title>
<ellipse fill="none" stroke="black" cx="130" cy="-18" rx="27" ry="18"/>
<text text-anchor="middle" x="130" y="-14.3" font-family="Times New Roman,serif" font-size="14.00">E</text>
</g>
<!-- B&#45;&gt;E -->
<g id="edge5" class="edge"><title>B&#45;&gt;E</title>
<path fill="none" stroke="black" d="M83.4962,-164.43C93.8334,-132.103 111.181,-77.851 121.514,-45.5382"/>
<polygon fill="black" stroke="black" points="80.0859,-163.604 80.3738,-174.195 86.7533,-165.736 80.0859,-163.604"/>
<polygon fill="black" stroke="black" points="124.892,-46.4644 124.604,-35.8735 118.225,-44.3323 124.892,-46.4644"/>
<text text-anchor="middle" x="122.5" y="-101.3" font-family="Times New Roman,serif" font-size="14.00">hates</text>
</g>
<!-- C&#45;&gt;A -->
<g id="edge3" class="edge"><title>C&#45;&gt;A</title>
<path fill="none" stroke="black" d="M172.762,-209.669C168.774,-219.615 163.198,-232.342 157,-243 154.774,-246.828 152.208,-250.734 149.573,-254.483"/>
<polygon fill="black" stroke="black" points="146.536,-252.704 143.428,-262.833 152.174,-256.853 146.536,-252.704"/>
<text text-anchor="middle" x="188.5" y="-231.8" font-family="Times New Roman,serif" font-size="14.00">contains</text>
</g>
<!-- C&#45;&gt;E -->
<g id="edge8" class="edge"><title>C&#45;&gt;E</title>
<path fill="none" stroke="black" d="M174.212,-174.195C165.686,-144.267 147.81,-81.5184 137.593,-45.6517"/>
<polygon fill="black" stroke="black" points="140.913,-44.5319 134.807,-35.8735 134.181,-46.4498 140.913,-44.5319"/>
<text text-anchor="middle" x="185" y="-101.3" font-family="Times New Roman,serif" font-size="14.00">divorced</text>
</g>
<!-- F -->
<g id="node6" class="node"><title>F</title>
<ellipse fill="none" stroke="black" cx="258" cy="-105" rx="27" ry="18"/>
<text text-anchor="middle" x="258" y="-101.3" font-family="Times New Roman,serif" font-size="14.00">F</text>
</g>
<!-- C&#45;&gt;F -->
<g id="edge6" class="edge"><title>C&#45;&gt;F</title>
<path fill="none" stroke="black" d="M192.761,-176.194C205.108,-162.909 223.399,-143.228 237.475,-128.084"/>
<polygon fill="black" stroke="black" points="240.153,-130.344 244.397,-120.636 235.025,-125.578 240.153,-130.344"/>
<text text-anchor="middle" x="238" y="-144.8" font-family="Times New Roman,serif" font-size="14.00">killed</text>
</g>
<!-- D&#45;&gt;E -->
<g id="edge7" class="edge"><title>D&#45;&gt;E</title>
<path fill="none" stroke="black" d="M32.7867,-87.3926C37.2076,-76.7184 44.2162,-63.1809 54,-54 65.7912,-42.9354 81.6973,-34.8757 95.9105,-29.2996"/>
<polygon fill="black" stroke="black" points="97.2169,-32.5487 105.409,-25.8296 94.8148,-25.9737 97.2169,-32.5487"/>
<text text-anchor="middle" x="69" y="-57.8" font-family="Times New Roman,serif" font-size="14.00">loves</text>
</g>
<!-- E&#45;&gt;F -->
<g id="edge9" class="edge"><title>E&#45;&gt;F</title>
<path fill="none" stroke="black" d="M148.635,-31.3746C170.258,-45.734 206.102,-69.5363 230.828,-85.9561"/>
<polygon fill="black" stroke="black" points="229.121,-89.0239 239.388,-91.6403 232.993,-83.1926 229.121,-89.0239"/>
<text text-anchor="middle" x="216.5" y="-57.8" font-family="Times New Roman,serif" font-size="14.00">owns</text>
</g>
<!-- Q -->
<g id="node7" class="node"><title>Q</title>
<ellipse fill="none" stroke="black" cx="249" cy="-279" rx="27" ry="18"/>
<text text-anchor="middle" x="249" y="-275.3" font-family="Times New Roman,serif" font-size="14.00">Q</text>
</g>
<!-- Q&#45;&gt;C -->
<g id="edge10" class="edge"><title>Q&#45;&gt;C</title>
<path fill="none" stroke="black" d="M234.36,-253.397C228.977,-245.04 222.58,-235.84 216,-228 211.822,-223.022 206.993,-218.017 202.231,-213.412"/>
<polygon fill="black" stroke="black" points="231.492,-255.41 239.764,-262.03 237.425,-251.696 231.492,-255.41"/>
<polygon fill="black" stroke="black" points="204.602,-210.837 194.907,-206.564 199.821,-215.95 204.602,-210.837"/>
<text text-anchor="middle" x="244.5" y="-231.8" font-family="Times New Roman,serif" font-size="14.00">knows</text>
</g>
</g>
</svg>
