<?xml version="1.0" encoding="UTF-8" standalone="no"?>
<!DOCTYPE svg PUBLIC "-//W3C//DTD SVG 1.1//EN"
 "http://www.w3.org/Graphics/SVG/1.1/DTD/svg11.dtd">
<!-- Generated by graphviz version 2.38.0 (20140413.2041)
 -->
<!-- Title: %3 Pages: 1 -->
<svg width="420pt" height="305pt"
 viewBox="0.00 0.00 420.28 304.86" xmlns="http://www.w3.org/2000/svg" xmlns:xlink="http://www.w3.org/1999/xlink">
<g id="graph0" class="graph" transform="scale(1 1) rotate(0) translate(4 300.86)">
<title>%3</title>
<!-- boss -->
<g id="node1" class="node"><title>boss</title>
<ellipse fill="none" stroke="black" cx="200.69" cy="-259.383" rx="57.0522" ry="37.4533"/>
<text text-anchor="middle" x="200.69" y="-270.683" font-family="Times New Roman,serif" font-size="14.00">GENERAL</text>
<text text-anchor="middle" x="200.69" y="-255.683" font-family="Times New Roman,serif" font-size="14.00">name: Carl</text>
<text text-anchor="middle" x="200.69" y="-240.683" font-family="Times New Roman,serif" font-size="14.00">intrepid</text>
</g>
<!-- l1 -->
<g id="node2" class="node"><title>l1</title>
<ellipse fill="none" stroke="black" cx="124.69" cy="-148.43" rx="67.3507" ry="37.4533"/>
<text text-anchor="middle" x="124.69" y="-159.73" font-family="Times New Roman,serif" font-size="14.00">LIUTENANT</text>
<text text-anchor="middle" x="124.69" y="-144.73" font-family="Times New Roman,serif" font-size="14.00">name: Mike</text>
<text text-anchor="middle" x="124.69" y="-129.73" font-family="Times New Roman,serif" font-size="14.00">spineless</text>
</g>
<!-- boss&#45;&gt;l1 -->
<g id="edge1" class="edge"><title>boss&#45;&gt;l1</title>
<path fill="none" stroke="black" d="M177.474,-225.102C170.169,-214.629 162.001,-202.919 154.313,-191.898"/>
<polygon fill="black" stroke="black" points="157.143,-189.837 148.551,-183.637 151.402,-193.841 157.143,-189.837"/>
</g>
<!-- l2 -->
<g id="node3" class="node"><title>l2</title>
<ellipse fill="none" stroke="black" cx="276.69" cy="-148.43" rx="67.3507" ry="37.4533"/>
<text text-anchor="middle" x="276.69" y="-159.73" font-family="Times New Roman,serif" font-size="14.00">LIUTENANT</text>
<text text-anchor="middle" x="276.69" y="-144.73" font-family="Times New Roman,serif" font-size="14.00">name: Scott</text>
<text text-anchor="middle" x="276.69" y="-129.73" font-family="Times New Roman,serif" font-size="14.00">agoraphobic</text>
</g>
<!-- boss&#45;&gt;l2 -->
<g id="edge5" class="edge"><title>boss&#45;&gt;l2</title>
<path fill="none" stroke="black" d="M223.905,-225.102C231.21,-214.629 239.379,-202.919 247.066,-191.898"/>
<polygon fill="black" stroke="black" points="249.978,-193.841 252.829,-183.637 244.237,-189.837 249.978,-193.841"/>
</g>
<!-- g1 -->
<g id="node4" class="node"><title>g1</title>
<ellipse fill="none" stroke="black" cx="58.6899" cy="-37.4767" rx="58.8803" ry="26.7407"/>
<text text-anchor="middle" x="58.6899" y="-41.2767" font-family="Times New Roman,serif" font-size="14.00">GRUNT</text>
<text text-anchor="middle" x="58.6899" y="-26.2767" font-family="Times New Roman,serif" font-size="14.00">name: Steve</text>
</g>
<!-- l1&#45;&gt;g1 -->
<g id="edge2" class="edge"><title>l1&#45;&gt;g1</title>
<path fill="none" stroke="black" d="M103.626,-112.657C95.7787,-99.7032 86.8913,-85.0318 79.1038,-72.1761"/>
<polygon fill="black" stroke="black" points="82.0893,-70.3492 73.9145,-63.6096 76.1021,-73.9761 82.0893,-70.3492"/>
</g>
<!-- g2 -->
<g id="node5" class="node"><title>g2</title>
<ellipse fill="none" stroke="black" cx="196.69" cy="-37.4767" rx="60.623" ry="37.4533"/>
<text text-anchor="middle" x="196.69" y="-48.7767" font-family="Times New Roman,serif" font-size="14.00">GRUNT</text>
<text text-anchor="middle" x="196.69" y="-33.7767" font-family="Times New Roman,serif" font-size="14.00">name: Oscar</text>
<text text-anchor="middle" x="196.69" y="-18.7767" font-family="Times New Roman,serif" font-size="14.00">moronic</text>
</g>
<!-- l1&#45;&gt;g2 -->
<g id="edge3" class="edge"><title>l1&#45;&gt;g2</title>
<path fill="none" stroke="black" d="M147.471,-112.956C154.233,-102.724 161.717,-91.3989 168.766,-80.7324"/>
<polygon fill="black" stroke="black" points="171.71,-82.6255 174.303,-72.3529 165.87,-78.7662 171.71,-82.6255"/>
</g>
<!-- l2&#45;&gt;g2 -->
<g id="edge4" class="edge"><title>l2&#45;&gt;g2</title>
<path fill="none" stroke="none" d="M251.816,-113.554C244.067,-103.001 235.43,-91.2378 227.335,-80.2127"/>
<polygon fill="none" stroke="none" points="230.013,-77.9468 221.274,-71.9577 224.371,-82.0897 230.013,-77.9468"/>
</g>
<!-- g3 -->
<g id="node6" class="node"><title>g3</title>
<ellipse fill="none" stroke="black" cx="343.69" cy="-37.4767" rx="68.6788" ry="26.7407"/>
<text text-anchor="middle" x="343.69" y="-41.2767" font-family="Times New Roman,serif" font-size="14.00">GRUNT</text>
<text text-anchor="middle" x="343.69" y="-26.2767" font-family="Times New Roman,serif" font-size="14.00">name: Tommy</text>
</g>
<!-- l2&#45;&gt;g3 -->
<g id="edge6" class="edge"><title>l2&#45;&gt;g3</title>
<path fill="none" stroke="black" d="M298.073,-112.657C305.977,-99.8044 314.92,-85.2609 322.781,-72.4778"/>
<polygon fill="black" stroke="black" points="325.767,-74.3032 328.024,-63.9515 319.805,-70.6364 325.767,-74.3032"/>
</g>
</g>
</svg>
