<?xml version="1.0" encoding="UTF-8" standalone="no"?>
<!DOCTYPE svg PUBLIC "-//W3C//DTD SVG 1.1//EN"
 "http://www.w3.org/Graphics/SVG/1.1/DTD/svg11.dtd">
<!-- Generated by graphviz version 2.38.0 (20140413.2041)
 -->
<!-- Title: %3 Pages: 1 -->
<svg width="299pt" height="44pt"
 viewBox="0.00 0.00 298.69 44.00" xmlns="http://www.w3.org/2000/svg" xmlns:xlink="http://www.w3.org/1999/xlink">
<g id="graph0" class="graph" transform="scale(1 1) rotate(0) translate(4 40)">
<title>%3</title>
<!-- data -->
<g id="node1" class="node"><title>data</title>
<ellipse fill="none" stroke="black" cx="27" cy="-18" rx="27" ry="18"/>
<text text-anchor="middle" x="27" y="-14.3" font-family="Times New Roman,serif" font-size="14.00">data</text>
</g>
<!-- encoder -->
<g id="node2" class="node"><title>encoder</title>
<polygon fill="none" stroke="black" points="152,-36 90,-36 90,-0 152,-0 152,-36"/>
<text text-anchor="middle" x="121" y="-14.3" font-family="Times New Roman,serif" font-size="14.00">encoder</text>
</g>
<!-- data&#45;&gt;encoder -->
<g id="edge1" class="edge"><title>data&#45;&gt;encoder</title>
<path fill="none" stroke="black" d="M54.1174,-18C62.1357,-18 71.1521,-18 79.8813,-18"/>
<polygon fill="black" stroke="black" points="79.9196,-21.5001 89.9195,-18 79.9195,-14.5001 79.9196,-21.5001"/>
</g>
<!-- description -->
<g id="node3" class="node"><title>description</title>
<ellipse fill="none" stroke="black" cx="239.345" cy="-18" rx="51.1914" ry="18"/>
<text text-anchor="middle" x="239.345" y="-14.3" font-family="Times New Roman,serif" font-size="14.00">description</text>
</g>
<!-- encoder&#45;&gt;description -->
<g id="edge2" class="edge"><title>encoder&#45;&gt;description</title>
<path fill="none" stroke="black" d="M152.265,-18C160.19,-18 169.02,-18 177.921,-18"/>
<polygon fill="black" stroke="black" points="177.956,-21.5001 187.956,-18 177.956,-14.5001 177.956,-21.5001"/>
</g>
</g>
</svg>
