<?xml version="1.0" encoding="UTF-8" standalone="no"?>
<!DOCTYPE svg PUBLIC "-//W3C//DTD SVG 1.1//EN"
 "http://www.w3.org/Graphics/SVG/1.1/DTD/svg11.dtd">
<!-- Generated by graphviz version 2.38.0 (20140413.2041)
 -->
<!-- Title: %3 Pages: 1 -->
<svg width="299pt" height="152pt"
 viewBox="0.00 0.00 298.69 152.00" xmlns="http://www.w3.org/2000/svg" xmlns:xlink="http://www.w3.org/1999/xlink">
<g id="graph0" class="graph" transform="scale(1 1) rotate(0) translate(4 148)">
<title>%3</title>
<!-- data -->
<g id="node1" class="node"><title>data</title>
<ellipse fill="none" stroke="black" cx="27" cy="-72" rx="27" ry="18"/>
<text text-anchor="middle" x="27" y="-68.3" font-family="Times New Roman,serif" font-size="14.00">data</text>
</g>
<!-- encoder -->
<g id="node2" class="node"><title>encoder</title>
<polygon fill="none" stroke="black" points="152,-144 90,-144 90,-108 152,-108 152,-144"/>
<text text-anchor="middle" x="121" y="-122.3" font-family="Times New Roman,serif" font-size="14.00">encoder</text>
</g>
<!-- data&#45;&gt;encoder -->
<g id="edge1" class="edge"><title>data:n&#45;&gt;encoder:w</title>
<path fill="none" stroke="black" d="M27,-91C27,-119.653 51.7811,-125.05 79.9358,-125.87"/>
<polygon fill="black" stroke="black" points="79.9557,-129.371 90,-126 80.046,-122.371 79.9557,-129.371"/>
</g>
<!-- description -->
<g id="node3" class="node"><title>description</title>
<ellipse fill="none" stroke="black" cx="239.345" cy="-72" rx="51.1914" ry="18"/>
<text text-anchor="middle" x="239.345" y="-68.3" font-family="Times New Roman,serif" font-size="14.00">description</text>
</g>
<!-- encoder&#45;&gt;description -->
<g id="edge2" class="edge"><title>encoder:e&#45;&gt;description:n</title>
<path fill="none" stroke="black" d="M152,-126C190.064,-126 231.195,-131.65 238.279,-101.134"/>
<polygon fill="black" stroke="black" points="241.779,-101.311 239.345,-91 234.818,-100.579 241.779,-101.311"/>
</g>
<!-- bogus -->
<g id="node5" class="node"><title>bogus</title>
<ellipse fill="none" stroke="none" cx="121" cy="-72" rx="27" ry="18"/>
</g>
<!-- encoder&#45;&gt;bogus -->
<g id="edge5" class="edge"><title>encoder&#45;&gt;bogus</title>
<path fill="none" stroke="none" d="M121,-107.79C121,-105.308 121,-102.826 121,-100.344"/>
<polygon fill="none" stroke="none" points="124.5,-100.141 121,-90.1406 117.5,-100.141 124.5,-100.141"/>
</g>
<!-- parser -->
<g id="node4" class="node"><title>parser</title>
<polygon fill="none" stroke="black" points="148,-36 94,-36 94,-0 148,-0 148,-36"/>
<text text-anchor="middle" x="121" y="-14.3" font-family="Times New Roman,serif" font-size="14.00">parser</text>
</g>
<!-- description&#45;&gt;parser -->
<g id="edge3" class="edge"><title>description:s&#45;&gt;parser:e</title>
<path fill="none" stroke="black" d="M239.345,-53C239.345,-13.3028 199.161,-17.0524 159.145,-17.8806"/>
<polygon fill="black" stroke="black" points="158.958,-14.3825 149,-18 159.041,-21.382 158.958,-14.3825"/>
</g>
<!-- parser&#45;&gt;data -->
<g id="edge4" class="edge"><title>parser:w&#45;&gt;data:s</title>
<path fill="none" stroke="black" d="M93,-18C63.5585,-18 34.4358,-19.4132 28.2155,-42.8823"/>
<polygon fill="black" stroke="black" points="24.7179,-42.6539 27,-53 31.6679,-43.4889 24.7179,-42.6539"/>
</g>
<!-- bogus&#45;&gt;parser -->
<g id="edge6" class="edge"><title>bogus&#45;&gt;parser</title>
<path fill="none" stroke="none" d="M121,-53.7902C121,-51.3082 121,-48.8262 121,-46.3443"/>
<polygon fill="none" stroke="none" points="124.5,-46.1406 121,-36.1406 117.5,-46.1407 124.5,-46.1406"/>
</g>
</g>
</svg>
