<?xml version="1.0" encoding="UTF-8" standalone="no"?>
<!DOCTYPE svg PUBLIC "-//W3C//DTD SVG 1.1//EN"
 "http://www.w3.org/Graphics/SVG/1.1/DTD/svg11.dtd">
<!-- Generated by graphviz version 2.38.0 (20140413.2041)
 -->
<!-- Title: %3 Pages: 1 -->
<svg width="291pt" height="44pt"
 viewBox="0.00 0.00 290.69 44.00" xmlns="http://www.w3.org/2000/svg" xmlns:xlink="http://www.w3.org/1999/xlink">
<g id="graph0" class="graph" transform="scale(1 1) rotate(0) translate(4 40)">
<title>%3</title>
<!-- description -->
<g id="node1" class="node"><title>description</title>
<ellipse fill="none" stroke="black" cx="51.3454" cy="-18" rx="51.1914" ry="18"/>
<text text-anchor="middle" x="51.3454" y="-14.3" font-family="Times New Roman,serif" font-size="14.00">description</text>
</g>
<!-- parser -->
<g id="node2" class="node"><title>parser</title>
<polygon fill="none" stroke="black" points="192.691,-36 138.691,-36 138.691,-0 192.691,-0 192.691,-36"/>
<text text-anchor="middle" x="165.691" y="-14.3" font-family="Times New Roman,serif" font-size="14.00">parser</text>
</g>
<!-- description&#45;&gt;parser -->
<g id="edge1" class="edge"><title>description&#45;&gt;parser</title>
<path fill="none" stroke="black" d="M102.931,-18C111.516,-18 120.277,-18 128.401,-18"/>
<polygon fill="black" stroke="black" points="128.645,-21.5001 138.645,-18 128.645,-14.5001 128.645,-21.5001"/>
</g>
<!-- data -->
<g id="node3" class="node"><title>data</title>
<ellipse fill="none" stroke="black" cx="255.691" cy="-18" rx="27" ry="18"/>
<text text-anchor="middle" x="255.691" y="-14.3" font-family="Times New Roman,serif" font-size="14.00">data</text>
</g>
<!-- parser&#45;&gt;data -->
<g id="edge2" class="edge"><title>parser&#45;&gt;data</title>
<path fill="none" stroke="black" d="M193.094,-18C201.084,-18 210.001,-18 218.515,-18"/>
<polygon fill="black" stroke="black" points="218.61,-21.5001 228.61,-18 218.61,-14.5001 218.61,-21.5001"/>
</g>
</g>
</svg>
