<?xml version="1.0" encoding="UTF-8" standalone="no"?>
<!DOCTYPE svg PUBLIC "-//W3C//DTD SVG 1.1//EN"
 "http://www.w3.org/Graphics/SVG/1.1/DTD/svg11.dtd">
<!-- Generated by graphviz version 2.38.0 (20140413.2041)
 -->
<!-- Title: %3 Pages: 1 -->
<svg width="394pt" height="62pt"
 viewBox="0.00 0.00 393.74 61.74" xmlns="http://www.w3.org/2000/svg" xmlns:xlink="http://www.w3.org/1999/xlink">
<g id="graph0" class="graph" transform="scale(1 1) rotate(0) translate(4 57.7401)">
<title>%3</title>
<!-- data -->
<g id="node1" class="node"><title>data</title>
<ellipse fill="none" stroke="black" cx="37.4767" cy="-26.8701" rx="37.4533" ry="26.7407"/>
<text text-anchor="middle" x="37.4767" y="-30.6701" font-family="Times New Roman,serif" font-size="14.00">nested</text>
<text text-anchor="middle" x="37.4767" y="-15.6701" font-family="Times New Roman,serif" font-size="14.00">data</text>
</g>
<!-- format -->
<g id="node2" class="node"><title>format</title>
<ellipse fill="none" stroke="black" cx="145.4" cy="-26.8701" rx="34.394" ry="18"/>
<text text-anchor="middle" x="145.4" y="-23.1701" font-family="Times New Roman,serif" font-size="14.00">format</text>
</g>
<!-- data&#45;&gt;format -->
<g id="edge1" class="edge"><title>data&#45;&gt;format</title>
<path fill="none" stroke="black" d="M75.2263,-26.8701C83.4675,-26.8701 92.2883,-26.8701 100.778,-26.8701"/>
<polygon fill="black" stroke="black" points="100.909,-30.3702 110.909,-26.8701 100.909,-23.3702 100.909,-30.3702"/>
</g>
<!-- XML -->
<g id="node3" class="node"><title>XML</title>
<ellipse fill="none" stroke="black" stroke-width="3" cx="246.394" cy="-26.8701" rx="30.5947" ry="18"/>
<text text-anchor="middle" x="246.394" y="-23.1701" font-family="Times New Roman,serif" font-size="14.00">XML</text>
</g>
<!-- format&#45;&gt;XML -->
<g id="edge2" class="edge"><title>format&#45;&gt;XML</title>
<path fill="none" stroke="black" d="M179.915,-26.8701C188.13,-26.8701 197.003,-26.8701 205.485,-26.8701"/>
<polygon fill="black" stroke="black" points="205.567,-30.3702 215.567,-26.8701 205.567,-23.3702 205.567,-30.3702"/>
</g>
<!-- HTML -->
<g id="node4" class="node"><title>HTML</title>
<ellipse fill="none" stroke="black" cx="349.339" cy="-26.8701" rx="36.2938" ry="18"/>
<text text-anchor="middle" x="349.339" y="-23.1701" font-family="Times New Roman,serif" font-size="14.00">HTML</text>
</g>
<!-- XML&#45;&gt;HTML -->
<g id="edge3" class="edge"><title>XML&#45;&gt;HTML</title>
<path fill="none" stroke="black" d="M277.135,-26.8701C285.161,-26.8701 294.033,-26.8701 302.712,-26.8701"/>
<polygon fill="black" stroke="black" points="302.749,-30.3702 312.749,-26.8701 302.749,-23.3702 302.749,-30.3702"/>
</g>
</g>
</svg>
