<?xml version="1.0" encoding="UTF-8" standalone="no"?>
<!DOCTYPE svg PUBLIC "-//W3C//DTD SVG 1.1//EN"
 "http://www.w3.org/Graphics/SVG/1.1/DTD/svg11.dtd">
<!-- Generated by graphviz version 2.38.0 (20140413.2041)
 -->
<!-- Title: %3 Pages: 1 -->
<svg width="340pt" height="188pt"
 viewBox="0.00 0.00 339.99 188.00" xmlns="http://www.w3.org/2000/svg" xmlns:xlink="http://www.w3.org/1999/xlink">
<g id="graph0" class="graph" transform="scale(1 1) rotate(0) translate(4 184)">
<title>%3</title>
<!-- truth -->
<g id="node1" class="node"><title>truth</title>
<ellipse fill="none" stroke="black" cx="136.047" cy="-162" rx="27.0966" ry="18"/>
<text text-anchor="middle" x="136.047" y="-158.3" font-family="Times New Roman,serif" font-size="14.00">truth</text>
</g>
<!-- iAm -->
<g id="node2" class="node"><title>iAm</title>
<ellipse fill="none" stroke="black" cx="37.0467" cy="-90" rx="37.0935" ry="18"/>
<text text-anchor="middle" x="37.0467" y="-86.3" font-family="Times New Roman,serif" font-size="14.00">&quot;I am &quot;</text>
</g>
<!-- truth&#45;&gt;iAm -->
<g id="edge1" class="edge"><title>truth&#45;&gt;iAm</title>
<path fill="none" stroke="black" d="M117.889,-148.161C103.248,-137.809 82.3926,-123.063 65.5319,-111.141"/>
<polygon fill="black" stroke="black" points="67.3188,-108.118 57.133,-105.202 63.2775,-113.834 67.3188,-108.118"/>
</g>
<!-- emphasis -->
<g id="node3" class="node"><title>emphasis</title>
<ellipse fill="none" stroke="black" cx="136.047" cy="-90" rx="44.393" ry="18"/>
<text text-anchor="middle" x="136.047" y="-86.3" font-family="Times New Roman,serif" font-size="14.00">emphasis</text>
</g>
<!-- truth&#45;&gt;emphasis -->
<g id="edge2" class="edge"><title>truth&#45;&gt;emphasis</title>
<path fill="none" stroke="black" d="M136.047,-143.697C136.047,-135.983 136.047,-126.712 136.047,-118.112"/>
<polygon fill="black" stroke="black" points="139.547,-118.104 136.047,-108.104 132.547,-118.104 139.547,-118.104"/>
</g>
<!-- good -->
<g id="node5" class="node"><title>good</title>
<ellipse fill="none" stroke="black" cx="265.047" cy="-90" rx="66.8882" ry="18"/>
<text text-anchor="middle" x="265.047" y="-86.3" font-family="Times New Roman,serif" font-size="14.00">&quot; good at this!&quot;</text>
</g>
<!-- truth&#45;&gt;good -->
<g id="edge4" class="edge"><title>truth&#45;&gt;good</title>
<path fill="none" stroke="black" d="M156.487,-149.908C175.554,-139.562 204.459,-123.877 227.65,-111.293"/>
<polygon fill="black" stroke="black" points="229.427,-114.31 236.547,-106.465 226.089,-108.158 229.427,-114.31"/>
</g>
<!-- really -->
<g id="node4" class="node"><title>really</title>
<ellipse fill="none" stroke="black" cx="136.047" cy="-18" rx="37.8943" ry="18"/>
<text text-anchor="middle" x="136.047" y="-14.3" font-family="Times New Roman,serif" font-size="14.00">&quot;really&quot;</text>
</g>
<!-- emphasis&#45;&gt;really -->
<g id="edge3" class="edge"><title>emphasis&#45;&gt;really</title>
<path fill="none" stroke="black" d="M136.047,-71.6966C136.047,-63.9827 136.047,-54.7125 136.047,-46.1124"/>
<polygon fill="black" stroke="black" points="139.547,-46.1043 136.047,-36.1043 132.547,-46.1044 139.547,-46.1043"/>
</g>
</g>
</svg>
