<?xml version="1.0" encoding="UTF-8" standalone="no"?>
<!DOCTYPE svg PUBLIC "-//W3C//DTD SVG 1.1//EN"
 "http://www.w3.org/Graphics/SVG/1.1/DTD/svg11.dtd">
<!-- Generated by graphviz version 2.38.0 (20140413.2041)
 -->
<!-- Title: %3 Pages: 1 -->
<svg width="571pt" height="223pt"
 viewBox="0.00 0.00 571.04 223.48" xmlns="http://www.w3.org/2000/svg" xmlns:xlink="http://www.w3.org/1999/xlink">
<g id="graph0" class="graph" transform="scale(1 1) rotate(0) translate(4 219.48)">
<title>%3</title>
<!-- book -->
<g id="node1" class="node"><title>book</title>
<ellipse fill="none" stroke="black" cx="275.518" cy="-197.48" rx="29.795" ry="18"/>
<text text-anchor="middle" x="275.518" y="-193.78" font-family="Times New Roman,serif" font-size="14.00">book</text>
</g>
<!-- textNode1 -->
<g id="node2" class="node"><title>textNode1</title>
<ellipse fill="none" stroke="black" cx="61.5183" cy="-116.61" rx="61.5366" ry="26.7407"/>
<text text-anchor="middle" x="61.5183" y="-120.41" font-family="Times New Roman,serif" font-size="14.00">textNode</text>
<text text-anchor="middle" x="61.5183" y="-105.41" font-family="Times New Roman,serif" font-size="14.00">(whitespace)</text>
</g>
<!-- book&#45;&gt;textNode1 -->
<g id="edge1" class="edge"><title>book&#45;&gt;textNode1</title>
<path fill="none" stroke="black" d="M250.551,-187.278C218.057,-175.303 160.34,-154.031 117.203,-138.133"/>
<polygon fill="black" stroke="black" points="118.276,-134.798 107.682,-134.624 115.855,-141.366 118.276,-134.798"/>
</g>
<!-- title -->
<g id="node3" class="node"><title>title</title>
<ellipse fill="none" stroke="black" cx="168.518" cy="-116.61" rx="27" ry="18"/>
<text text-anchor="middle" x="168.518" y="-112.91" font-family="Times New Roman,serif" font-size="14.00">title</text>
</g>
<!-- book&#45;&gt;title -->
<g id="edge2" class="edge"><title>book&#45;&gt;title</title>
<path fill="none" stroke="black" d="M257.367,-183.101C240.02,-170.314 213.698,-150.912 194.202,-136.542"/>
<polygon fill="black" stroke="black" points="196.173,-133.647 186.047,-130.53 192.02,-139.281 196.173,-133.647"/>
</g>
<!-- textNode3 -->
<g id="node5" class="node"><title>textNode3</title>
<ellipse fill="none" stroke="black" cx="275.518" cy="-116.61" rx="61.5366" ry="26.7407"/>
<text text-anchor="middle" x="275.518" y="-120.41" font-family="Times New Roman,serif" font-size="14.00">textNode</text>
<text text-anchor="middle" x="275.518" y="-105.41" font-family="Times New Roman,serif" font-size="14.00">(whitespace)</text>
</g>
<!-- book&#45;&gt;textNode3 -->
<g id="edge4" class="edge"><title>book&#45;&gt;textNode3</title>
<path fill="none" stroke="black" d="M275.518,-179.367C275.518,-171.877 275.518,-162.786 275.518,-153.908"/>
<polygon fill="black" stroke="black" points="279.018,-153.693 275.518,-143.693 272.018,-153.693 279.018,-153.693"/>
</g>
<!-- author -->
<g id="node6" class="node"><title>author</title>
<ellipse fill="none" stroke="black" cx="388.518" cy="-116.61" rx="33.5952" ry="18"/>
<text text-anchor="middle" x="388.518" y="-112.91" font-family="Times New Roman,serif" font-size="14.00">author</text>
</g>
<!-- book&#45;&gt;author -->
<g id="edge5" class="edge"><title>book&#45;&gt;author</title>
<path fill="none" stroke="black" d="M294.432,-183.279C312.464,-170.694 339.843,-151.584 360.425,-137.218"/>
<polygon fill="black" stroke="black" points="362.586,-139.978 368.783,-131.385 358.579,-134.238 362.586,-139.978"/>
</g>
<!-- textNode5 -->
<g id="node8" class="node"><title>textNode5</title>
<ellipse fill="none" stroke="black" cx="501.518" cy="-116.61" rx="61.5366" ry="26.7407"/>
<text text-anchor="middle" x="501.518" y="-120.41" font-family="Times New Roman,serif" font-size="14.00">textNode</text>
<text text-anchor="middle" x="501.518" y="-105.41" font-family="Times New Roman,serif" font-size="14.00">(whitespace)</text>
</g>
<!-- book&#45;&gt;textNode5 -->
<g id="edge7" class="edge"><title>book&#45;&gt;textNode5</title>
<path fill="none" stroke="black" d="M301.263,-187.966C332.249,-177.665 385.823,-159.683 431.518,-143.48 436.281,-141.792 441.217,-140.017 446.163,-138.222"/>
<polygon fill="black" stroke="black" points="447.45,-141.478 455.644,-134.762 445.05,-134.902 447.45,-141.478"/>
</g>
<!-- textNode2 -->
<g id="node4" class="node"><title>textNode2</title>
<ellipse fill="none" stroke="black" cx="168.518" cy="-26.8701" rx="62.4516" ry="26.7407"/>
<text text-anchor="middle" x="168.518" y="-30.6701" font-family="Times New Roman,serif" font-size="14.00">textNode</text>
<text text-anchor="middle" x="168.518" y="-15.6701" font-family="Times New Roman,serif" font-size="14.00">(Naiv Super)</text>
</g>
<!-- title&#45;&gt;textNode2 -->
<g id="edge3" class="edge"><title>title&#45;&gt;textNode2</title>
<path fill="none" stroke="black" d="M168.518,-98.2755C168.518,-88.4643 168.518,-75.8168 168.518,-63.9541"/>
<polygon fill="black" stroke="black" points="172.018,-63.8222 168.518,-53.8222 165.018,-63.8222 172.018,-63.8222"/>
</g>
<!-- textNode4 -->
<g id="node7" class="node"><title>textNode4</title>
<ellipse fill="none" stroke="black" cx="388.518" cy="-26.8701" rx="61.5366" ry="26.7407"/>
<text text-anchor="middle" x="388.518" y="-30.6701" font-family="Times New Roman,serif" font-size="14.00">textNode</text>
<text text-anchor="middle" x="388.518" y="-15.6701" font-family="Times New Roman,serif" font-size="14.00">(Erlend Loe)</text>
</g>
<!-- author&#45;&gt;textNode4 -->
<g id="edge6" class="edge"><title>author&#45;&gt;textNode4</title>
<path fill="none" stroke="black" d="M388.518,-98.2755C388.518,-88.4643 388.518,-75.8168 388.518,-63.9541"/>
<polygon fill="black" stroke="black" points="392.018,-63.8222 388.518,-53.8222 385.018,-63.8222 392.018,-63.8222"/>
</g>
</g>
</svg>
