<?xml version="1.0" encoding="UTF-8" standalone="no"?>
<!DOCTYPE svg PUBLIC "-//W3C//DTD SVG 1.1//EN"
 "http://www.w3.org/Graphics/SVG/1.1/DTD/svg11.dtd">
<!-- Generated by graphviz version 2.38.0 (20140413.2041)
 -->
<!-- Title: %3 Pages: 1 -->
<svg width="150pt" height="188pt"
 viewBox="0.00 0.00 150.00 188.00" xmlns="http://www.w3.org/2000/svg" xmlns:xlink="http://www.w3.org/1999/xlink">
<g id="graph0" class="graph" transform="scale(1 1) rotate(0) translate(4 184)">
<title>%3</title>
<!-- html -->
<g id="node1" class="node"><title>html</title>
<ellipse fill="none" stroke="black" cx="73" cy="-162" rx="27" ry="18"/>
<text text-anchor="middle" x="73" y="-158.3" font-family="Times New Roman,serif" font-size="14.00">html</text>
</g>
<!-- head -->
<g id="node2" class="node"><title>head</title>
<ellipse fill="none" stroke="black" cx="34" cy="-90" rx="27.8951" ry="18"/>
<text text-anchor="middle" x="34" y="-86.3" font-family="Times New Roman,serif" font-size="14.00">head</text>
</g>
<!-- html&#45;&gt;head -->
<g id="edge1" class="edge"><title>html&#45;&gt;head</title>
<path fill="none" stroke="black" d="M63.9546,-144.765C59.18,-136.195 53.2181,-125.494 47.8731,-115.9"/>
<polygon fill="black" stroke="black" points="50.9209,-114.18 42.9964,-107.147 44.8059,-117.586 50.9209,-114.18"/>
</g>
<!-- body -->
<g id="node3" class="node"><title>body</title>
<ellipse fill="none" stroke="black" cx="112" cy="-90" rx="29.795" ry="18"/>
<text text-anchor="middle" x="112" y="-86.3" font-family="Times New Roman,serif" font-size="14.00">body</text>
</g>
<!-- html&#45;&gt;body -->
<g id="edge2" class="edge"><title>html&#45;&gt;body</title>
<path fill="none" stroke="black" d="M82.0454,-144.765C86.7033,-136.404 92.4911,-126.016 97.7338,-116.606"/>
<polygon fill="black" stroke="black" points="100.923,-118.073 102.733,-107.633 94.8083,-114.666 100.923,-118.073"/>
</g>
<!-- metadata -->
<g id="node4" class="node"><title>metadata</title>
<polygon fill="none" stroke="black" points="66,-36 0,-36 0,-0 66,-0 66,-36"/>
<text text-anchor="middle" x="33" y="-14.3" font-family="Times New Roman,serif" font-size="14.00">metadata</text>
</g>
<!-- head&#45;&gt;metadata -->
<g id="edge3" class="edge"><title>head&#45;&gt;metadata</title>
<path fill="none" stroke="black" d="M33.7528,-71.6966C33.5978,-60.8463 33.3988,-46.9167 33.2443,-36.1043"/>
</g>
<!-- content -->
<g id="node5" class="node"><title>content</title>
<polygon fill="none" stroke="black" points="142,-36 84,-36 84,-0 142,-0 142,-36"/>
<text text-anchor="middle" x="113" y="-14.3" font-family="Times New Roman,serif" font-size="14.00">content</text>
</g>
<!-- body&#45;&gt;content -->
<g id="edge4" class="edge"><title>body&#45;&gt;content</title>
<path fill="none" stroke="black" d="M112.247,-71.6966C112.402,-60.8463 112.601,-46.9167 112.756,-36.1043"/>
</g>
</g>
</svg>
