<?xml version="1.0" encoding="UTF-8" standalone="no"?>
<!DOCTYPE svg PUBLIC "-//W3C//DTD SVG 1.1//EN"
 "http://www.w3.org/Graphics/SVG/1.1/DTD/svg11.dtd">
<!-- Generated by graphviz version 2.38.0 (20140413.2041)
 -->
<!-- Title: %3 Pages: 1 -->
<svg width="203pt" height="153pt"
 viewBox="0.00 0.00 202.59 153.00" xmlns="http://www.w3.org/2000/svg" xmlns:xlink="http://www.w3.org/1999/xlink">
<g id="graph0" class="graph" transform="scale(1 1) rotate(0) translate(4 149)">
<title>%3</title>
<g id="clust1" class="cluster"><title>cluster_old</title>
<polygon fill="none" stroke="black" points="3,-8 3,-137 83,-137 83,-8 3,-8"/>
<text text-anchor="middle" x="43" y="-121.8" font-family="Times New Roman,serif" font-size="14.00">Old HTML</text>
</g>
<g id="clust2" class="cluster"><title>cluster_new</title>
<polygon fill="none" stroke="black" points="103,-8 103,-137 187.594,-137 187.594,-8 103,-8"/>
<text text-anchor="middle" x="145.297" y="-121.8" font-family="Times New Roman,serif" font-size="14.00">New HTML</text>
</g>
<!-- b -->
<g id="node1" class="node"><title>b</title>
<ellipse fill="none" stroke="black" cx="43" cy="-88" rx="27" ry="18"/>
<text text-anchor="middle" x="43" y="-84.3" font-family="Times New Roman,serif" font-size="14.00">b</text>
</g>
<!-- strong -->
<g id="node3" class="node"><title>strong</title>
<ellipse fill="none" stroke="black" cx="144.797" cy="-88" rx="33.5952" ry="18"/>
<text text-anchor="middle" x="144.797" y="-84.3" font-family="Times New Roman,serif" font-size="14.00">strong</text>
</g>
<!-- b&#45;&gt;strong -->
<g id="edge1" class="edge"><title>b&#45;&gt;strong</title>
<path fill="none" stroke="black" d="M70.2205,-88C79.576,-88 90.3772,-88 100.773,-88"/>
<polygon fill="black" stroke="black" points="100.964,-91.5001 110.964,-88 100.964,-84.5001 100.964,-91.5001"/>
</g>
<!-- i -->
<g id="node2" class="node"><title>i</title>
<ellipse fill="none" stroke="black" cx="43" cy="-34" rx="27" ry="18"/>
<text text-anchor="middle" x="43" y="-30.3" font-family="Times New Roman,serif" font-size="14.00">i</text>
</g>
<!-- em -->
<g id="node4" class="node"><title>em</title>
<ellipse fill="none" stroke="black" cx="144.797" cy="-34" rx="27" ry="18"/>
<text text-anchor="middle" x="144.797" y="-30.3" font-family="Times New Roman,serif" font-size="14.00">em</text>
</g>
<!-- i&#45;&gt;em -->
<g id="edge2" class="edge"><title>i&#45;&gt;em</title>
<path fill="none" stroke="black" d="M70.2205,-34C81.6803,-34 95.3092,-34 107.704,-34"/>
<polygon fill="black" stroke="black" points="107.752,-37.5001 117.752,-34 107.752,-30.5001 107.752,-37.5001"/>
</g>
</g>
</svg>
