<?xml version="1.0" encoding="UTF-8" standalone="no"?>
<!DOCTYPE svg PUBLIC "-//W3C//DTD SVG 1.1//EN"
 "http://www.w3.org/Graphics/SVG/1.1/DTD/svg11.dtd">
<!-- Generated by graphviz version 2.38.0 (20140413.2041)
 -->
<!-- Title: %3 Pages: 1 -->
<svg width="290pt" height="280pt"
 viewBox="0.00 0.00 289.90 279.74" xmlns="http://www.w3.org/2000/svg" xmlns:xlink="http://www.w3.org/1999/xlink">
<g id="graph0" class="graph" transform="scale(1 1) rotate(0) translate(4 275.74)">
<title>%3</title>
<!-- CSS -->
<g id="node1" class="node"><title>CSS</title>
<ellipse fill="none" stroke="black" cx="181.104" cy="-253.74" rx="27.8951" ry="18"/>
<text text-anchor="middle" x="181.104" y="-250.04" font-family="Times New Roman,serif" font-size="14.00">CSS</text>
</g>
<!-- CSSsel -->
<g id="node2" class="node"><title>CSSsel</title>
<ellipse fill="none" stroke="black" stroke-width="3" cx="127.104" cy="-181.74" rx="42.7926" ry="18"/>
<text text-anchor="middle" x="127.104" y="-178.04" font-family="Times New Roman,serif" font-size="14.00">selectors</text>
</g>
<!-- CSS&#45;&gt;CSSsel -->
<g id="edge1" class="edge"><title>CSS&#45;&gt;CSSsel</title>
<path fill="none" stroke="black" d="M169.12,-237.205C162.323,-228.394 153.664,-217.17 145.976,-207.203"/>
<polygon fill="black" stroke="black" points="148.687,-204.987 139.807,-199.207 143.144,-209.263 148.687,-204.987"/>
</g>
<!-- rule -->
<g id="node3" class="node"><title>rule</title>
<ellipse fill="none" stroke="black" cx="235.104" cy="-181.74" rx="46.5926" ry="18"/>
<text text-anchor="middle" x="235.104" y="-178.04" font-family="Times New Roman,serif" font-size="14.00">style rules</text>
</g>
<!-- CSS&#45;&gt;rule -->
<g id="edge2" class="edge"><title>CSS&#45;&gt;rule</title>
<path fill="none" stroke="black" d="M193.088,-237.205C199.885,-228.394 208.544,-217.17 216.233,-207.203"/>
<polygon fill="black" stroke="black" points="219.064,-209.263 222.401,-199.207 213.522,-204.987 219.064,-209.263"/>
</g>
<!-- desc -->
<g id="node4" class="node"><title>desc</title>
<ellipse fill="none" stroke="black" cx="60.1041" cy="-100.87" rx="60.2083" ry="26.7407"/>
<text text-anchor="middle" x="60.1041" y="-104.67" font-family="Times New Roman,serif" font-size="14.00">element</text>
<text text-anchor="middle" x="60.1041" y="-89.6701" font-family="Times New Roman,serif" font-size="14.00">descriptions</text>
</g>
<!-- CSSsel&#45;&gt;desc -->
<g id="edge3" class="edge"><title>CSSsel&#45;&gt;desc</title>
<path fill="none" stroke="black" d="M113.222,-164.398C105.769,-155.625 96.3162,-144.498 87.4573,-134.069"/>
<polygon fill="black" stroke="black" points="89.9834,-131.637 80.8416,-126.282 84.6484,-136.169 89.9834,-131.637"/>
</g>
<!-- combinators -->
<g id="node5" class="node"><title>combinators</title>
<ellipse fill="none" stroke="black" cx="194.104" cy="-100.87" rx="55.7903" ry="18"/>
<text text-anchor="middle" x="194.104" y="-97.1701" font-family="Times New Roman,serif" font-size="14.00">combinators</text>
</g>
<!-- CSSsel&#45;&gt;combinators -->
<g id="edge4" class="edge"><title>CSSsel&#45;&gt;combinators</title>
<path fill="none" stroke="black" d="M140.987,-164.398C150.356,-153.368 162.887,-138.617 173.425,-126.213"/>
<polygon fill="black" stroke="black" points="176.202,-128.35 180.009,-118.462 170.867,-123.818 176.202,-128.35"/>
</g>
<!-- descfoo -->
<g id="node6" class="node"><title>descfoo</title>
<polygon fill="none" stroke="black" points="107.104,-38 13.1041,-38 13.1041,-0 107.104,-0 107.104,-38"/>
<text text-anchor="middle" x="60.1041" y="-22.8" font-family="Times New Roman,serif" font-size="14.00">describes a</text>
<text text-anchor="middle" x="60.1041" y="-7.8" font-family="Times New Roman,serif" font-size="14.00">single element</text>
</g>
<!-- desc&#45;&gt;descfoo -->
<g id="edge5" class="edge"><title>desc&#45;&gt;descfoo</title>
<path fill="none" stroke="black" d="M60.1041,-73.7176C60.1041,-62.0709 60.1041,-48.6415 60.1041,-38.1238"/>
</g>
<!-- combfoo -->
<g id="node7" class="node"><title>combfoo</title>
<polygon fill="none" stroke="black" points="246.104,-38 142.104,-38 142.104,-0 246.104,-0 246.104,-38"/>
<text text-anchor="middle" x="194.104" y="-22.8" font-family="Times New Roman,serif" font-size="14.00">combines many</text>
<text text-anchor="middle" x="194.104" y="-7.8" font-family="Times New Roman,serif" font-size="14.00">descriptions</text>
</g>
<!-- combinators&#45;&gt;combfoo -->
<g id="edge6" class="edge"><title>combinators&#45;&gt;combfoo</title>
<path fill="none" stroke="black" d="M194.104,-82.5394C194.104,-69.4178 194.104,-51.4415 194.104,-38.1284"/>
</g>
</g>
</svg>
