<?xml version="1.0" encoding="UTF-8" standalone="no"?>
<!DOCTYPE svg PUBLIC "-//W3C//DTD SVG 1.1//EN"
 "http://www.w3.org/Graphics/SVG/1.1/DTD/svg11.dtd">
<!-- Generated by graphviz version 2.38.0 (20140413.2041)
 -->
<!-- Title: %3 Pages: 1 -->
<svg width="290pt" height="206pt"
 viewBox="0.00 0.00 289.90 205.74" xmlns="http://www.w3.org/2000/svg" xmlns:xlink="http://www.w3.org/1999/xlink">
<g id="graph0" class="graph" transform="scale(1 1) rotate(0) translate(4 201.74)">
<title>%3</title>
<!-- CSS -->
<g id="node1" class="node"><title>CSS</title>
<ellipse fill="none" stroke="black" cx="181.104" cy="-179.74" rx="27.8951" ry="18"/>
<text text-anchor="middle" x="181.104" y="-176.04" font-family="Times New Roman,serif" font-size="14.00">CSS</text>
</g>
<!-- CSSsel -->
<g id="node2" class="node"><title>CSSsel</title>
<ellipse fill="none" stroke="black" cx="127.104" cy="-107.74" rx="42.7926" ry="18"/>
<text text-anchor="middle" x="127.104" y="-104.04" font-family="Times New Roman,serif" font-size="14.00">selectors</text>
</g>
<!-- CSS&#45;&gt;CSSsel -->
<g id="edge1" class="edge"><title>CSS&#45;&gt;CSSsel</title>
<path fill="none" stroke="black" d="M169.12,-163.205C162.323,-154.394 153.664,-143.17 145.976,-133.203"/>
<polygon fill="black" stroke="black" points="148.687,-130.987 139.807,-125.207 143.144,-135.263 148.687,-130.987"/>
</g>
<!-- rule -->
<g id="node3" class="node"><title>rule</title>
<ellipse fill="none" stroke="black" cx="235.104" cy="-107.74" rx="46.5926" ry="18"/>
<text text-anchor="middle" x="235.104" y="-104.04" font-family="Times New Roman,serif" font-size="14.00">style rules</text>
</g>
<!-- CSS&#45;&gt;rule -->
<g id="edge2" class="edge"><title>CSS&#45;&gt;rule</title>
<path fill="none" stroke="black" d="M193.088,-163.205C199.885,-154.394 208.544,-143.17 216.233,-133.203"/>
<polygon fill="black" stroke="black" points="219.064,-135.263 222.401,-125.207 213.522,-130.987 219.064,-135.263"/>
</g>
<!-- desc -->
<g id="node4" class="node"><title>desc</title>
<ellipse fill="none" stroke="black" stroke-width="3" cx="60.1041" cy="-26.8701" rx="60.2083" ry="26.7407"/>
<text text-anchor="middle" x="60.1041" y="-30.6701" font-family="Times New Roman,serif" font-size="14.00">element</text>
<text text-anchor="middle" x="60.1041" y="-15.6701" font-family="Times New Roman,serif" font-size="14.00">descriptions</text>
</g>
<!-- CSSsel&#45;&gt;desc -->
<g id="edge3" class="edge"><title>CSSsel&#45;&gt;desc</title>
<path fill="none" stroke="black" d="M113.222,-90.3982C105.769,-81.6251 96.3162,-70.4977 87.4573,-60.0693"/>
<polygon fill="black" stroke="black" points="89.9834,-57.6368 80.8416,-52.2815 84.6484,-62.1688 89.9834,-57.6368"/>
</g>
<!-- combinators -->
<g id="node5" class="node"><title>combinators</title>
<ellipse fill="none" stroke="black" cx="194.104" cy="-26.8701" rx="55.7903" ry="18"/>
<text text-anchor="middle" x="194.104" y="-23.1701" font-family="Times New Roman,serif" font-size="14.00">combinators</text>
</g>
<!-- CSSsel&#45;&gt;combinators -->
<g id="edge4" class="edge"><title>CSSsel&#45;&gt;combinators</title>
<path fill="none" stroke="black" d="M140.987,-90.3982C150.356,-79.3684 162.887,-64.6173 173.425,-52.2125"/>
<polygon fill="black" stroke="black" points="176.202,-54.3497 180.009,-44.4624 170.867,-49.8177 176.202,-54.3497"/>
</g>
</g>
</svg>
