<?xml version="1.0" encoding="UTF-8" standalone="no"?>
<!DOCTYPE svg PUBLIC "-//W3C//DTD SVG 1.1//EN"
 "http://www.w3.org/Graphics/SVG/1.1/DTD/svg11.dtd">
<!-- Generated by graphviz version 2.38.0 (20140413.2041)
 -->
<!-- Title: %3 Pages: 1 -->
<svg width="530pt" height="208pt"
 viewBox="0.00 0.00 530.00 207.74" xmlns="http://www.w3.org/2000/svg" xmlns:xlink="http://www.w3.org/1999/xlink">
<g id="graph0" class="graph" transform="scale(1 1) rotate(0) translate(4 203.74)">
<title>%3</title>
<!-- desc -->
<g id="node1" class="node"><title>desc</title>
<ellipse fill="none" stroke="black" cx="252" cy="-172.87" rx="55.7232" ry="26.7407"/>
<text text-anchor="middle" x="252" y="-176.67" font-family="Times New Roman,serif" font-size="14.00">element</text>
<text text-anchor="middle" x="252" y="-161.67" font-family="Times New Roman,serif" font-size="14.00">description</text>
</g>
<!-- type -->
<g id="node2" class="node"><title>type</title>
<ellipse fill="none" stroke="black" cx="55" cy="-92" rx="27" ry="18"/>
<text text-anchor="middle" x="55" y="-88.3" font-family="Times New Roman,serif" font-size="14.00">type</text>
</g>
<!-- desc&#45;&gt;type -->
<g id="edge1" class="edge"><title>desc&#45;&gt;type</title>
<path fill="none" stroke="black" d="M209.739,-154.95C172.901,-140.202 120.28,-119.135 86.8849,-105.765"/>
<polygon fill="black" stroke="black" points="88.1754,-102.512 77.5909,-102.044 85.5737,-109.01 88.1754,-102.512"/>
</g>
<!-- class -->
<g id="node4" class="node"><title>class</title>
<ellipse fill="none" stroke="black" cx="161" cy="-92" rx="28.6953" ry="18"/>
<text text-anchor="middle" x="161" y="-88.3" font-family="Times New Roman,serif" font-size="14.00">class</text>
</g>
<!-- desc&#45;&gt;class -->
<g id="edge3" class="edge"><title>desc&#45;&gt;class</title>
<path fill="none" stroke="black" d="M225.679,-149.058C212.847,-137.936 197.525,-124.656 185.014,-113.813"/>
<polygon fill="black" stroke="black" points="187.103,-110.992 177.254,-107.088 182.519,-116.282 187.103,-110.992"/>
</g>
<!-- id -->
<g id="node6" class="node"><title>id</title>
<ellipse fill="none" stroke="black" cx="252" cy="-92" rx="27" ry="18"/>
<text text-anchor="middle" x="252" y="-88.3" font-family="Times New Roman,serif" font-size="14.00">id</text>
</g>
<!-- desc&#45;&gt;id -->
<g id="edge5" class="edge"><title>desc&#45;&gt;id</title>
<path fill="none" stroke="black" d="M252,-145.607C252,-137.506 252,-128.568 252,-120.392"/>
<polygon fill="black" stroke="black" points="255.5,-120.22 252,-110.22 248.5,-120.22 255.5,-120.22"/>
</g>
<!-- attr -->
<g id="node8" class="node"><title>attr</title>
<ellipse fill="none" stroke="black" cx="347" cy="-92" rx="40.0939" ry="18"/>
<text text-anchor="middle" x="347" y="-88.3" font-family="Times New Roman,serif" font-size="14.00">attribute</text>
</g>
<!-- desc&#45;&gt;attr -->
<g id="edge7" class="edge"><title>desc&#45;&gt;attr</title>
<path fill="none" stroke="black" d="M279.223,-149.269C292.266,-138.44 307.821,-125.527 320.737,-114.804"/>
<polygon fill="black" stroke="black" points="323.333,-117.198 328.791,-108.117 318.861,-111.812 323.333,-117.198"/>
</g>
<!-- pseudo -->
<g id="node10" class="node"><title>pseudo</title>
<ellipse fill="none" stroke="black" cx="463" cy="-92" rx="37.8943" ry="18"/>
<text text-anchor="middle" x="463" y="-88.3" font-family="Times New Roman,serif" font-size="14.00">pseudo</text>
</g>
<!-- desc&#45;&gt;pseudo -->
<g id="edge9" class="edge"><title>desc&#45;&gt;pseudo</title>
<path fill="none" stroke="black" d="M295.208,-155.719C333.119,-141.548 387.75,-121.128 424.266,-107.479"/>
<polygon fill="black" stroke="black" points="425.914,-110.599 434.056,-103.819 423.463,-104.042 425.914,-110.599"/>
</g>
<!-- typefoo -->
<g id="node3" class="node"><title>typefoo</title>
<polygon fill="none" stroke="black" points="80,-38 0,-38 0,-0 80,-0 80,-38"/>
<text text-anchor="middle" x="40" y="-22.8" font-family="Times New Roman,serif" font-size="14.00">ex: div,</text>
<text text-anchor="middle" x="40" y="-7.8" font-family="Times New Roman,serif" font-size="14.00">body, table</text>
</g>
<!-- type&#45;&gt;typefoo -->
<g id="edge2" class="edge"><title>type&#45;&gt;typefoo</title>
<path fill="none" stroke="black" d="M51.3689,-73.8129C49.7237,-66.0255 47.7364,-56.6191 45.8866,-47.8633"/>
<polygon fill="black" stroke="black" points="49.2985,-47.0801 43.807,-38.0196 42.4497,-48.5271 49.2985,-47.0801"/>
</g>
<!-- classfoo -->
<g id="node5" class="node"><title>classfoo</title>
<polygon fill="none" stroke="black" points="191.5,-37 98.5,-37 98.5,-1 191.5,-1 191.5,-37"/>
<text text-anchor="middle" x="145" y="-15.3" font-family="Times New Roman,serif" font-size="14.00">ex: .important</text>
</g>
<!-- class&#45;&gt;classfoo -->
<g id="edge4" class="edge"><title>class&#45;&gt;classfoo</title>
<path fill="none" stroke="black" d="M157.127,-73.8129C155.319,-65.7895 153.123,-56.0475 151.1,-47.0691"/>
<polygon fill="black" stroke="black" points="154.45,-46.0147 148.837,-37.0288 147.622,-47.5537 154.45,-46.0147"/>
</g>
<!-- idfoo -->
<g id="node7" class="node"><title>idfoo</title>
<polygon fill="none" stroke="black" points="294,-37 210,-37 210,-1 294,-1 294,-37"/>
<text text-anchor="middle" x="252" y="-15.3" font-family="Times New Roman,serif" font-size="14.00">ex: #sidebar</text>
</g>
<!-- id&#45;&gt;idfoo -->
<g id="edge6" class="edge"><title>id&#45;&gt;idfoo</title>
<path fill="none" stroke="black" d="M252,-73.8129C252,-65.7895 252,-56.0475 252,-47.0691"/>
<polygon fill="black" stroke="black" points="255.5,-47.0288 252,-37.0288 248.5,-47.0289 255.5,-47.0288"/>
</g>
<!-- attrfoo -->
<g id="node9" class="node"><title>attrfoo</title>
<polygon fill="none" stroke="black" points="407.5,-38 312.5,-38 312.5,-0 407.5,-0 407.5,-38"/>
<text text-anchor="middle" x="360" y="-22.8" font-family="Times New Roman,serif" font-size="14.00">ex: [disabled],</text>
<text text-anchor="middle" x="360" y="-7.8" font-family="Times New Roman,serif" font-size="14.00">[href^=http]</text>
</g>
<!-- attr&#45;&gt;attrfoo -->
<g id="edge8" class="edge"><title>attr&#45;&gt;attrfoo</title>
<path fill="none" stroke="black" d="M350.147,-73.8129C351.573,-66.0255 353.295,-56.6191 354.898,-47.8633"/>
<polygon fill="black" stroke="black" points="358.342,-48.4864 356.701,-38.0196 351.457,-47.2256 358.342,-48.4864"/>
</g>
<!-- pseudofoo -->
<g id="node11" class="node"><title>pseudofoo</title>
<polygon fill="none" stroke="black" points="522,-38 426,-38 426,-0 522,-0 522,-38"/>
<text text-anchor="middle" x="474" y="-22.8" font-family="Times New Roman,serif" font-size="14.00">ex: :first&#45;child,</text>
<text text-anchor="middle" x="474" y="-7.8" font-family="Times New Roman,serif" font-size="14.00">:nth&#45;child(3)</text>
</g>
<!-- pseudo&#45;&gt;pseudofoo -->
<g id="edge10" class="edge"><title>pseudo&#45;&gt;pseudofoo</title>
<path fill="none" stroke="black" d="M465.663,-73.8129C466.856,-66.1101 468.295,-56.8234 469.639,-48.149"/>
<polygon fill="black" stroke="black" points="473.136,-48.4376 471.208,-38.0196 466.218,-47.3658 473.136,-48.4376"/>
</g>
</g>
</svg>
