<?xml version="1.0" encoding="UTF-8" standalone="no"?>
<!DOCTYPE svg PUBLIC "-//W3C//DTD SVG 1.1//EN"
 "http://www.w3.org/Graphics/SVG/1.1/DTD/svg11.dtd">
<!-- Generated by graphviz version 2.38.0 (20140413.2041)
 -->
<!-- Title: %3 Pages: 1 -->
<svg width="395pt" height="223pt"
 viewBox="0.00 0.00 395.08 223.48" xmlns="http://www.w3.org/2000/svg" xmlns:xlink="http://www.w3.org/1999/xlink">
<g id="graph0" class="graph" transform="scale(1 1) rotate(0) translate(4 219.48)">
<title>%3</title>
<!-- comb -->
<g id="node1" class="node"><title>comb</title>
<ellipse fill="none" stroke="black" cx="192.995" cy="-188.61" rx="60.623" ry="26.7407"/>
<text text-anchor="middle" x="192.995" y="-192.41" font-family="Times New Roman,serif" font-size="14.00">description</text>
<text text-anchor="middle" x="192.995" y="-177.41" font-family="Times New Roman,serif" font-size="14.00">combinators</text>
</g>
<!-- descendant -->
<g id="node2" class="node"><title>descendant</title>
<ellipse fill="none" stroke="black" cx="51.9954" cy="-98.8701" rx="51.9908" ry="18"/>
<text text-anchor="middle" x="51.9954" y="-95.1701" font-family="Times New Roman,serif" font-size="14.00">descendant</text>
</g>
<!-- comb&#45;&gt;descendant -->
<g id="edge1" class="edge"><title>comb&#45;&gt;descendant</title>
<path fill="none" stroke="black" d="M158.863,-166.371C136.37,-152.374 107.076,-134.145 84.848,-120.313"/>
<polygon fill="black" stroke="black" points="86.4385,-117.181 76.0989,-114.869 82.7402,-123.124 86.4385,-117.181"/>
</g>
<!-- child -->
<g id="node4" class="node"><title>child</title>
<ellipse fill="none" stroke="black" cx="150.995" cy="-98.8701" rx="28.6953" ry="18"/>
<text text-anchor="middle" x="150.995" y="-95.1701" font-family="Times New Roman,serif" font-size="14.00">child</text>
</g>
<!-- comb&#45;&gt;child -->
<g id="edge3" class="edge"><title>comb&#45;&gt;child</title>
<path fill="none" stroke="black" d="M180.847,-162.232C175.32,-150.686 168.792,-137.049 163.253,-125.476"/>
<polygon fill="black" stroke="black" points="166.35,-123.84 158.875,-116.331 160.036,-126.863 166.35,-123.84"/>
</g>
<!-- adjsibl -->
<g id="node6" class="node"><title>adjsibl</title>
<ellipse fill="none" stroke="black" cx="234.995" cy="-98.8701" rx="37.4533" ry="26.7407"/>
<text text-anchor="middle" x="234.995" y="-102.67" font-family="Times New Roman,serif" font-size="14.00">prior</text>
<text text-anchor="middle" x="234.995" y="-87.6701" font-family="Times New Roman,serif" font-size="14.00">sibling</text>
</g>
<!-- comb&#45;&gt;adjsibl -->
<g id="edge5" class="edge"><title>comb&#45;&gt;adjsibl</title>
<path fill="none" stroke="black" d="M205.144,-162.232C209.395,-153.35 214.24,-143.23 218.771,-133.764"/>
<polygon fill="black" stroke="black" points="222.003,-135.117 223.164,-124.586 215.689,-132.095 222.003,-135.117"/>
</g>
<!-- anysibl -->
<g id="node8" class="node"><title>anysibl</title>
<ellipse fill="none" stroke="black" cx="338.995" cy="-98.8701" rx="48.1667" ry="26.7407"/>
<text text-anchor="middle" x="338.995" y="-102.67" font-family="Times New Roman,serif" font-size="14.00">any older</text>
<text text-anchor="middle" x="338.995" y="-87.6701" font-family="Times New Roman,serif" font-size="14.00">sibling</text>
</g>
<!-- comb&#45;&gt;anysibl -->
<g id="edge7" class="edge"><title>comb&#45;&gt;anysibl</title>
<path fill="none" stroke="black" d="M227.966,-166.594C249.023,-153.94 275.938,-137.765 297.994,-124.51"/>
<polygon fill="black" stroke="black" points="300.037,-127.366 306.805,-119.215 296.431,-121.366 300.037,-127.366"/>
</g>
<!-- descfoo -->
<g id="node3" class="node"><title>descfoo</title>
<polygon fill="none" stroke="black" points="78.9954,-36 24.9954,-36 24.9954,-0 78.9954,-0 78.9954,-36"/>
<text text-anchor="middle" x="51.9954" y="-14.3" font-family="Times New Roman,serif" font-size="14.00">div p</text>
</g>
<!-- descendant&#45;&gt;descfoo -->
<g id="edge2" class="edge"><title>descendant&#45;&gt;descfoo</title>
<path fill="none" stroke="black" d="M51.9954,-80.7564C51.9954,-70.7312 51.9954,-57.8362 51.9954,-46.4246"/>
<polygon fill="black" stroke="black" points="55.4955,-46.0802 51.9954,-36.0802 48.4955,-46.0803 55.4955,-46.0802"/>
</g>
<!-- childfoo -->
<g id="node5" class="node"><title>childfoo</title>
<polygon fill="none" stroke="black" points="179.495,-36 122.495,-36 122.495,-0 179.495,-0 179.495,-36"/>
<text text-anchor="middle" x="150.995" y="-14.3" font-family="Times New Roman,serif" font-size="14.00">div &gt; p</text>
</g>
<!-- child&#45;&gt;childfoo -->
<g id="edge4" class="edge"><title>child&#45;&gt;childfoo</title>
<path fill="none" stroke="black" d="M150.995,-80.7564C150.995,-70.7312 150.995,-57.8362 150.995,-46.4246"/>
<polygon fill="black" stroke="black" points="154.495,-46.0802 150.995,-36.0802 147.495,-46.0803 154.495,-46.0802"/>
</g>
<!-- adjsiblfoo -->
<g id="node7" class="node"><title>adjsiblfoo</title>
<polygon fill="none" stroke="black" points="263.495,-36 206.495,-36 206.495,-0 263.495,-0 263.495,-36"/>
<text text-anchor="middle" x="234.995" y="-14.3" font-family="Times New Roman,serif" font-size="14.00">div + p</text>
</g>
<!-- adjsibl&#45;&gt;adjsiblfoo -->
<g id="edge6" class="edge"><title>adjsibl&#45;&gt;adjsiblfoo</title>
<path fill="none" stroke="black" d="M234.995,-71.6075C234.995,-63.5064 234.995,-54.5675 234.995,-46.3924"/>
<polygon fill="black" stroke="black" points="238.495,-46.22 234.995,-36.22 231.495,-46.2201 238.495,-46.22"/>
</g>
<!-- anysiblfoo -->
<g id="node9" class="node"><title>anysiblfoo</title>
<polygon fill="none" stroke="black" points="366.995,-36 310.995,-36 310.995,-0 366.995,-0 366.995,-36"/>
<text text-anchor="middle" x="338.995" y="-14.3" font-family="Times New Roman,serif" font-size="14.00">div ~ p</text>
</g>
<!-- anysibl&#45;&gt;anysiblfoo -->
<g id="edge8" class="edge"><title>anysibl&#45;&gt;anysiblfoo</title>
<path fill="none" stroke="black" d="M338.995,-71.6075C338.995,-63.5064 338.995,-54.5675 338.995,-46.3924"/>
<polygon fill="black" stroke="black" points="342.495,-46.22 338.995,-36.22 335.495,-46.2201 342.495,-46.22"/>
</g>
</g>
</svg>
