<?xml version="1.0" encoding="UTF-8" standalone="no"?>
<!DOCTYPE svg PUBLIC "-//W3C//DTD SVG 1.1//EN"
 "http://www.w3.org/Graphics/SVG/1.1/DTD/svg11.dtd">
<!-- Generated by graphviz version 2.38.0 (20140413.2041)
 -->
<!-- Title: %3 Pages: 1 -->
<svg width="499pt" height="188pt"
 viewBox="0.00 0.00 499.00 188.00" xmlns="http://www.w3.org/2000/svg" xmlns:xlink="http://www.w3.org/1999/xlink">
<g id="graph0" class="graph" transform="scale(1 1) rotate(0) translate(4 184)">
<title>%3</title>
<!-- p -->
<g id="node1" class="node"><title>p</title>
<ellipse fill="none" stroke="black" cx="243" cy="-162" rx="27" ry="18"/>
<text text-anchor="middle" x="243" y="-158.3" font-family="Times New Roman,serif" font-size="14.00">&lt;p&gt;</text>
</g>
<!-- note1 -->
<g id="node2" class="node"><title>note1</title>
<ellipse fill="none" stroke="black" stroke-dasharray="5,2" cx="27" cy="-90" rx="27" ry="18"/>
<text text-anchor="middle" x="27" y="-86.3" font-family="Times New Roman,serif" font-size="14.00">♬</text>
</g>
<!-- p&#45;&gt;note1 -->
<g id="edge1" class="edge"><title>p&#45;&gt;note1</title>
<path fill="none" stroke="black" stroke-dasharray="5,2" d="M217.848,-154.909C182.676,-146.097 117.04,-128.573 63,-108 61.159,-107.299 59.2818,-106.544 57.3992,-105.754"/>
<polygon fill="black" stroke="black" points="58.6444,-102.478 48.0842,-101.623 55.8063,-108.877 58.6444,-102.478"/>
</g>
<!-- Eeexiiit -->
<g id="node3" class="node"><title>Eeexiiit</title>
<ellipse fill="none" stroke="black" cx="108" cy="-90" rx="36.2938" ry="18"/>
<text text-anchor="middle" x="108" y="-86.3" font-family="Times New Roman,serif" font-size="14.00">Eeexiiit</text>
</g>
<!-- p&#45;&gt;Eeexiiit -->
<g id="edge2" class="edge"><title>p&#45;&gt;Eeexiiit</title>
<path fill="none" stroke="black" d="M222.202,-150.216C200.596,-139.013 166.468,-121.317 141.141,-108.184"/>
<polygon fill="black" stroke="black" points="142.736,-105.069 132.247,-103.573 139.514,-111.283 142.736,-105.069"/>
</g>
<!-- em1 -->
<g id="node4" class="node"><title>em1</title>
<ellipse fill="none" stroke="black" cx="195" cy="-90" rx="32.4942" ry="18"/>
<text text-anchor="middle" x="195" y="-86.3" font-family="Times New Roman,serif" font-size="14.00">&lt;em&gt;</text>
</g>
<!-- p&#45;&gt;em1 -->
<g id="edge3" class="edge"><title>p&#45;&gt;em1</title>
<path fill="none" stroke="black" d="M232.108,-145.116C226.178,-136.469 218.709,-125.575 212.028,-115.833"/>
<polygon fill="black" stroke="black" points="214.724,-113.575 206.182,-107.307 208.951,-117.534 214.724,-113.575"/>
</g>
<!-- Eeenteeer -->
<g id="node6" class="node"><title>Eeenteeer</title>
<ellipse fill="none" stroke="black" cx="291" cy="-90" rx="45.4919" ry="18"/>
<text text-anchor="middle" x="291" y="-86.3" font-family="Times New Roman,serif" font-size="14.00">Eeenteeer</text>
</g>
<!-- p&#45;&gt;Eeenteeer -->
<g id="edge5" class="edge"><title>p&#45;&gt;Eeenteeer</title>
<path fill="none" stroke="black" d="M253.892,-145.116C259.737,-136.592 267.078,-125.886 273.685,-116.251"/>
<polygon fill="black" stroke="black" points="276.713,-118.024 279.482,-107.797 270.94,-114.065 276.713,-118.024"/>
</g>
<!-- em2 -->
<g id="node7" class="node"><title>em2</title>
<ellipse fill="none" stroke="black" cx="387" cy="-90" rx="32.4942" ry="18"/>
<text text-anchor="middle" x="387" y="-86.3" font-family="Times New Roman,serif" font-size="14.00">&lt;em&gt;</text>
</g>
<!-- p&#45;&gt;em2 -->
<g id="edge6" class="edge"><title>p&#45;&gt;em2</title>
<path fill="none" stroke="black" d="M264.248,-150.671C287.902,-139.173 326.426,-120.446 354.009,-107.037"/>
<polygon fill="black" stroke="black" points="355.803,-110.057 363.267,-102.537 352.743,-103.761 355.803,-110.057"/>
</g>
<!-- note2 -->
<g id="node9" class="node"><title>note2</title>
<ellipse fill="none" stroke="black" stroke-dasharray="5,2" cx="464" cy="-90" rx="27" ry="18"/>
<text text-anchor="middle" x="464" y="-86.3" font-family="Times New Roman,serif" font-size="14.00">♫♩</text>
</g>
<!-- p&#45;&gt;note2 -->
<g id="edge8" class="edge"><title>p&#45;&gt;note2</title>
<path fill="none" stroke="black" stroke-dasharray="5,2" d="M268.254,-155.147C304.264,-146.491 372.188,-129.014 428,-108 429.844,-107.306 431.723,-106.556 433.607,-105.77"/>
<polygon fill="black" stroke="black" points="435.196,-108.895 442.926,-101.649 432.365,-102.493 435.196,-108.895"/>
</g>
<!-- light -->
<g id="node5" class="node"><title>light</title>
<ellipse fill="none" stroke="black" cx="195" cy="-18" rx="27" ry="18"/>
<text text-anchor="middle" x="195" y="-14.3" font-family="Times New Roman,serif" font-size="14.00">light</text>
</g>
<!-- em1&#45;&gt;light -->
<g id="edge4" class="edge"><title>em1&#45;&gt;light</title>
<path fill="none" stroke="black" d="M195,-71.6966C195,-63.9827 195,-54.7125 195,-46.1124"/>
<polygon fill="black" stroke="black" points="198.5,-46.1043 195,-36.1043 191.5,-46.1044 198.5,-46.1043"/>
</g>
<!-- niiight -->
<g id="node8" class="node"><title>niiight</title>
<ellipse fill="none" stroke="black" cx="387" cy="-18" rx="32.4942" ry="18"/>
<text text-anchor="middle" x="387" y="-14.3" font-family="Times New Roman,serif" font-size="14.00">niiight</text>
</g>
<!-- em2&#45;&gt;niiight -->
<g id="edge7" class="edge"><title>em2&#45;&gt;niiight</title>
<path fill="none" stroke="black" d="M387,-71.6966C387,-63.9827 387,-54.7125 387,-46.1124"/>
<polygon fill="black" stroke="black" points="390.5,-46.1043 387,-36.1043 383.5,-46.1044 390.5,-46.1043"/>
</g>
</g>
</svg>
