<?xml version="1.0" encoding="UTF-8" standalone="no"?>
<!DOCTYPE svg PUBLIC "-//W3C//DTD SVG 1.1//EN"
 "http://www.w3.org/Graphics/SVG/1.1/DTD/svg11.dtd">
<!-- Generated by graphviz version 2.38.0 (20140413.2041)
 -->
<!-- Title: %3 Pages: 1 -->
<svg width="267pt" height="98pt"
 viewBox="0.00 0.00 267.19 98.00" xmlns="http://www.w3.org/2000/svg" xmlns:xlink="http://www.w3.org/1999/xlink">
<g id="graph0" class="graph" transform="scale(1 1) rotate(0) translate(4 94)">
<title>%3</title>
<!-- SASS -->
<g id="node1" class="node"><title>SASS</title>
<ellipse fill="none" stroke="black" cx="33.1471" cy="-72" rx="33.2948" ry="18"/>
<text text-anchor="middle" x="33.1471" y="-68.3" font-family="Times New Roman,serif" font-size="14.00">SASS</text>
</g>
<!-- compiler -->
<g id="node2" class="node"><title>compiler</title>
<polygon fill="none" stroke="black" points="167.294,-63 102.294,-63 102.294,-27 167.294,-27 167.294,-63"/>
<text text-anchor="middle" x="134.794" y="-41.3" font-family="Times New Roman,serif" font-size="14.00">compiler</text>
</g>
<!-- SASS&#45;&gt;compiler -->
<g id="edge1" class="edge"><title>SASS&#45;&gt;compiler</title>
<path fill="none" stroke="black" d="M63.237,-64.1179C72.2757,-61.6688 82.4225,-58.9195 92.1426,-56.2857"/>
<polygon fill="black" stroke="black" points="93.3167,-59.5939 102.053,-53.6004 91.486,-52.8375 93.3167,-59.5939"/>
</g>
<!-- CSS -->
<g id="node4" class="node"><title>CSS</title>
<ellipse fill="none" stroke="black" cx="231.242" cy="-45" rx="27.8951" ry="18"/>
<text text-anchor="middle" x="231.242" y="-41.3" font-family="Times New Roman,serif" font-size="14.00">CSS</text>
</g>
<!-- compiler&#45;&gt;CSS -->
<g id="edge3" class="edge"><title>compiler&#45;&gt;CSS</title>
<path fill="none" stroke="black" d="M167.507,-45C175.736,-45 184.672,-45 193.151,-45"/>
<polygon fill="black" stroke="black" points="193.189,-48.5001 203.189,-45 193.189,-41.5001 193.189,-48.5001"/>
</g>
<!-- LESS -->
<g id="node3" class="node"><title>LESS</title>
<ellipse fill="none" stroke="black" cx="33.1471" cy="-18" rx="32.4942" ry="18"/>
<text text-anchor="middle" x="33.1471" y="-14.3" font-family="Times New Roman,serif" font-size="14.00">LESS</text>
</g>
<!-- LESS&#45;&gt;compiler -->
<g id="edge2" class="edge"><title>LESS&#45;&gt;compiler</title>
<path fill="none" stroke="black" d="M62.7019,-25.7371C71.9324,-28.2382 82.3618,-31.0641 92.3315,-33.7654"/>
<polygon fill="black" stroke="black" points="91.5192,-37.1715 102.087,-36.4086 93.3499,-30.4151 91.5192,-37.1715"/>
</g>
</g>
</svg>
