<?xml version="1.0" encoding="UTF-8" standalone="no"?>
<!DOCTYPE svg PUBLIC "-//W3C//DTD SVG 1.1//EN"
 "http://www.w3.org/Graphics/SVG/1.1/DTD/svg11.dtd">
<!-- Generated by graphviz version 2.38.0 (20140413.2041)
 -->
<!-- Title: %3 Pages: 1 -->
<svg width="715pt" height="132pt"
 viewBox="0.00 0.00 714.68 132.37" xmlns="http://www.w3.org/2000/svg" xmlns:xlink="http://www.w3.org/1999/xlink">
<g id="graph0" class="graph" transform="scale(1 1) rotate(0) translate(4 128.37)">
<title>%3</title>
<!-- important -->
<g id="node1" class="node"><title>important</title>
<ellipse fill="none" stroke="black" stroke-dasharray="5,2" cx="62.5" cy="-97.5" rx="52.1524" ry="26.7407"/>
<text text-anchor="middle" x="62.5" y="-101.3" font-family="Times New Roman,serif" font-size="14.00">rule with</text>
<text text-anchor="middle" x="62.5" y="-86.3" font-family="Times New Roman,serif" font-size="14.00">!important</text>
</g>
<!-- inline -->
<g id="node2" class="node"><title>inline</title>
<ellipse fill="none" stroke="black" stroke-dasharray="5,2" cx="223.5" cy="-97.5" rx="29.4969" ry="18"/>
<text text-anchor="middle" x="223.5" y="-93.8" font-family="Times New Roman,serif" font-size="14.00">inline</text>
</g>
<!-- important&#45;&gt;inline -->
<g id="edge1" class="edge"><title>important&#45;&gt;inline</title>
<path fill="none" stroke="black" stroke-dasharray="5,2" d="M115.123,-97.5C137.361,-97.5 162.932,-97.5 183.541,-97.5"/>
<polygon fill="black" stroke="black" points="183.821,-101 193.821,-97.5 183.821,-94.0001 183.821,-101"/>
</g>
<!-- importantfoo -->
<g id="node7" class="node"><title>importantfoo</title>
<polygon fill="none" stroke="black" stroke-dasharray="5,2" points="125,-52.5 0,-52.5 0,-14.5 125,-14.5 125,-52.5"/>
<text text-anchor="middle" x="62.5" y="-37.3" font-family="Times New Roman,serif" font-size="14.00">Considered a hack.</text>
<text text-anchor="middle" x="62.5" y="-22.3" font-family="Times New Roman,serif" font-size="14.00">Use as last resort</text>
</g>
<!-- important&#45;&gt;importantfoo -->
<g id="edge6" class="edge"><title>important&#45;&gt;importantfoo</title>
<path fill="none" stroke="black" stroke-dasharray="5,2" d="M62.5,-70.3828C62.5,-64.5885 62.5,-58.7943 62.5,-53"/>
</g>
<!-- styles -->
<g id="node3" class="node"><title>styles</title>
<ellipse fill="none" stroke="black" cx="371" cy="-97.5" rx="31.3957" ry="18"/>
<text text-anchor="middle" x="371" y="-93.8" font-family="Times New Roman,serif" font-size="14.00">styles</text>
</g>
<!-- inline&#45;&gt;styles -->
<g id="edge2" class="edge"><title>inline&#45;&gt;styles</title>
<path fill="none" stroke="black" stroke-dasharray="5,2" d="M252.899,-97.5C274.753,-97.5 305.241,-97.5 329.63,-97.5"/>
<polygon fill="black" stroke="black" points="329.666,-101 339.666,-97.5 329.666,-94.0001 329.666,-101"/>
</g>
<!-- inlinefoo -->
<g id="node6" class="node"><title>inlinefoo</title>
<polygon fill="none" stroke="black" stroke-dasharray="5,2" points="286,-61.5 161,-61.5 161,-23.5 286,-23.5 286,-61.5"/>
<text text-anchor="middle" x="223.5" y="-46.3" font-family="Times New Roman,serif" font-size="14.00">Trumps everything.</text>
<text text-anchor="middle" x="223.5" y="-31.3" font-family="Times New Roman,serif" font-size="14.00">Be careful!</text>
</g>
<!-- inline&#45;&gt;inlinefoo -->
<g id="edge5" class="edge"><title>inline&#45;&gt;inlinefoo</title>
<path fill="none" stroke="black" stroke-dasharray="5,2" d="M223.5,-79.3893C223.5,-73.5382 223.5,-67.6871 223.5,-61.8359"/>
</g>
<!-- inherit -->
<g id="node4" class="node"><title>inherit</title>
<ellipse fill="none" stroke="black" cx="519.5" cy="-97.5" rx="32.4942" ry="18"/>
<text text-anchor="middle" x="519.5" y="-93.8" font-family="Times New Roman,serif" font-size="14.00">inherit</text>
</g>
<!-- styles&#45;&gt;inherit -->
<g id="edge3" class="edge"><title>styles&#45;&gt;inherit</title>
<path fill="none" stroke="black" d="M402.355,-97.5C423.892,-97.5 453.067,-97.5 476.789,-97.5"/>
<polygon fill="black" stroke="black" points="476.919,-101 486.919,-97.5 476.919,-94.0001 476.919,-101"/>
</g>
<!-- stylesfoo -->
<g id="node8" class="node"><title>stylesfoo</title>
<polygon fill="none" stroke="black" points="420,-61 322,-61 322,-8 420,-8 420,-61"/>
<text text-anchor="middle" x="371" y="-45.8" font-family="Times New Roman,serif" font-size="14.00">Sorted first by</text>
<text text-anchor="middle" x="371" y="-30.8" font-family="Times New Roman,serif" font-size="14.00">specificity,</text>
<text text-anchor="middle" x="371" y="-15.8" font-family="Times New Roman,serif" font-size="14.00">then by order</text>
</g>
<!-- styles&#45;&gt;stylesfoo -->
<g id="edge7" class="edge"><title>styles&#45;&gt;stylesfoo</title>
<path fill="none" stroke="black" d="M371,-79.2891C371,-73.2188 371,-67.1484 371,-61.0781"/>
</g>
<!-- defaults -->
<g id="node5" class="node"><title>defaults</title>
<ellipse fill="none" stroke="black" stroke-dasharray="5,2" cx="662.841" cy="-97.5" rx="43.6818" ry="26.7407"/>
<text text-anchor="middle" x="662.841" y="-101.3" font-family="Times New Roman,serif" font-size="14.00">browser</text>
<text text-anchor="middle" x="662.841" y="-86.3" font-family="Times New Roman,serif" font-size="14.00">defaults</text>
</g>
<!-- inherit&#45;&gt;defaults -->
<g id="edge4" class="edge"><title>inherit&#45;&gt;defaults</title>
<path fill="none" stroke="black" stroke-dasharray="5,2" d="M552.22,-97.5C568.915,-97.5 589.829,-97.5 608.901,-97.5"/>
<polygon fill="black" stroke="black" points="608.971,-101 618.971,-97.5 608.971,-94.0001 608.971,-101"/>
</g>
<!-- inheritfoo -->
<g id="node9" class="node"><title>inheritfoo</title>
<polygon fill="none" stroke="black" points="583,-61.5 456,-61.5 456,-23.5 583,-23.5 583,-61.5"/>
<text text-anchor="middle" x="519.5" y="-46.3" font-family="Times New Roman,serif" font-size="14.00">Some styles are</text>
<text text-anchor="middle" x="519.5" y="-31.3" font-family="Times New Roman,serif" font-size="14.00">inherited to children</text>
</g>
<!-- inherit&#45;&gt;inheritfoo -->
<g id="edge8" class="edge"><title>inherit&#45;&gt;inheritfoo</title>
<path fill="none" stroke="black" d="M519.5,-79.3893C519.5,-73.5382 519.5,-67.6871 519.5,-61.8359"/>
</g>
<!-- defaultsfoo -->
<g id="node10" class="node"><title>defaultsfoo</title>
<polygon fill="none" stroke="black" stroke-dasharray="5,2" points="704.841,-53 620.841,-53 620.841,-0 704.841,-0 704.841,-53"/>
<text text-anchor="middle" x="662.841" y="-37.8" font-family="Times New Roman,serif" font-size="14.00">Often reset</text>
<text text-anchor="middle" x="662.841" y="-22.8" font-family="Times New Roman,serif" font-size="14.00">so we have</text>
<text text-anchor="middle" x="662.841" y="-7.8" font-family="Times New Roman,serif" font-size="14.00">total control</text>
</g>
<!-- defaults&#45;&gt;defaultsfoo -->
<g id="edge9" class="edge"><title>defaults&#45;&gt;defaultsfoo</title>
<path fill="none" stroke="black" stroke-dasharray="5,2" d="M662.841,-70.459C662.841,-64.681 662.841,-58.903 662.841,-53.125"/>
</g>
</g>
</svg>
